<svg width="22" height="23" viewBox="0 0 22 23" fill="none" xmlns="http://www.w3.org/2000/svg">
<path d="M11 6.74999C11.3481 6.74999 11.6819 6.61171 11.9281 6.36557C12.1742 6.11943 12.3125 5.78559 12.3125 5.43749C12.3125 5.08939 12.1742 4.75555 11.9281 4.50941C11.6819 4.26327 11.3481 4.12499 11 4.12499C10.6519 4.12499 10.3181 4.26327 10.0719 4.50941C9.82578 4.75555 9.6875 5.08939 9.6875 5.43749C9.6875 5.78559 9.82578 6.11943 10.0719 6.36557C10.3181 6.61171 10.6519 6.74999 11 6.74999ZM12.288 0.546238C11.9239 0.250374 11.4691 0.0888672 11 0.0888672C10.5309 0.0888672 10.0761 0.250374 9.712 0.546238L0.958498 7.65999C-0.105502 8.52799 0.506998 10.25 1.879 10.25H2.25V17.6C1.2105 18.1302 0.499998 19.21 0.499998 20.4577V21.625C0.499998 21.8571 0.592185 22.0796 0.756279 22.2437C0.920374 22.4078 1.14293 22.5 1.375 22.5H20.625C20.8571 22.5 21.0796 22.4078 21.2437 22.2437C21.4078 22.0796 21.5 21.8571 21.5 21.625V20.4577C21.5 19.2117 20.7895 18.1302 19.75 17.6V10.25H20.121C21.493 10.25 22.1055 8.52624 21.0397 7.65999L12.2897 0.544488L12.288 0.546238ZM10.818 1.90424C10.87 1.86219 10.9349 1.83925 11.0017 1.83925C11.0686 1.83925 11.1335 1.86219 11.1855 1.90424L19.2967 8.49999H2.7015L10.818 1.90249V1.90424ZM18 17.25H16.25V10.25H18V17.25ZM14.5 17.25H11.875V10.25H14.5V17.25ZM10.125 17.25H7.5V10.25H10.125V17.25ZM18.2922 19C19.0972 19 19.75 19.6527 19.75 20.4577V20.75H2.25V20.4577C2.25 19.6527 2.90275 19 3.70775 19H18.2922ZM5.75 17.25H4V10.25H5.75V17.25Z" fill="black"/>
</svg>
