<svg width="16" height="22" viewBox="0 0 16 22" fill="none" xmlns="http://www.w3.org/2000/svg">
<path d="M1.33785 21.9999H14.6622C15.4113 21.9999 16 21.4097 16 20.6584V1.34151C16 0.590361 15.4114 0 14.6622 0H3.66559H3.63889C3.6122 0 3.58532 5.75688e-08 3.55862 0.0267691H3.53193C3.50523 0.0267691 3.47836 0.0535381 3.45166 0.0804884L0.0802683 3.48789C0.0535725 3.51466 0.0535725 3.54161 0.0266959 3.56838V3.59515C0.0266959 3.62192 0.0266959 3.64887 0 3.67564V3.70241V20.6585C0 21.4096 0.588746 22 1.33784 22L1.33785 21.9999ZM3.39809 0.912309V3.40741H0.909818L3.39809 0.912309ZM0.535178 3.94386H3.66559C3.82612 3.94386 3.93308 3.83661 3.93308 3.67563V0.536641H14.6622C15.1172 0.536641 15.4649 0.885357 15.4649 1.34151V20.6584C15.4649 21.1145 15.1172 21.4633 14.6622 21.4633H1.33794C0.883032 21.4633 0.53527 21.1145 0.53527 20.6584L0.535178 3.94386Z" fill="black"/>
</svg>
