<svg width="14" height="20" viewBox="0 0 14 20" fill="none" xmlns="http://www.w3.org/2000/svg">
<path d="M0.591038 19.9996C0.345058 19.9996 0.12601 19.8433 0.0461347 19.6107C-0.0340636 19.3777 0.0423319 19.12 0.236009 18.9684L11.6943 10.0063L0.235197 1.04172C0.10935 0.949473 0.0266185 0.809993 0.0053817 0.655623C-0.0158567 0.501252 0.0263033 0.344658 0.122351 0.221659C0.2184 0.0989858 0.359779 0.0200512 0.514782 0.0032533C0.669794 -0.0132298 0.825113 0.0333672 0.945255 0.132906L12.9862 9.55192C13.1263 9.66129 13.2084 9.82898 13.2084 10.0065C13.2084 10.184 13.1263 10.3517 12.9862 10.4611L0.946067 19.8776C0.844947 19.9569 0.719733 20.0003 0.591038 20V19.9996Z" fill="black"/>
</svg>
