<svg width="26" height="26" viewBox="0 0 26 26" fill="none" xmlns="http://www.w3.org/2000/svg">
<path d="M12.6912 25.3824C5.70029 25.3824 0 19.6822 0 12.6912C0 5.70022 5.70022 8.2312e-09 12.6912 8.2312e-09C19.6821 -0.000250115 25.3824 5.69997 25.3824 12.6912C25.3824 19.6821 19.6822 25.3824 12.6912 25.3824ZM12.6912 0.717017C6.09465 0.717017 0.717018 6.09465 0.717018 12.6912C0.717018 19.2878 6.09465 24.6654 12.6912 24.6654C19.2878 24.6654 24.6654 19.2878 24.6654 12.6912C24.6654 6.09465 19.2878 0.717017 12.6912 0.717017V0.717017Z" fill="black"/>
<path d="M12.6912 14.3403C12.4761 14.3403 12.3326 14.197 12.3326 13.9817C12.3326 12.8344 13.2646 12.2967 13.7308 12.0459C13.8025 12.0101 13.8743 11.9741 13.9101 11.9384C15.0932 11.2932 15.8102 10.1816 15.8102 8.99847C15.8102 7.24171 14.3402 5.77202 12.5837 5.77202C10.827 5.77202 9.35728 7.24197 9.35728 8.99847C9.35728 9.21354 9.21398 9.35708 8.99867 9.35708C8.7836 9.35708 8.64005 9.21379 8.64005 8.99847C8.64005 6.88333 10.4326 5.05475 12.5838 5.05475C14.6989 5.05475 16.5275 6.84729 16.5275 8.99847C16.5275 10.4324 15.667 11.7948 14.2688 12.5478C14.2328 12.5835 14.1613 12.6195 14.0895 12.6913C13.5516 12.9779 13.0497 13.3365 13.0497 13.9819C13.0497 14.197 12.9064 14.3403 12.6914 14.3403L12.6912 14.3403Z" fill="black"/>
<path d="M12.6912 20.3991C11.4723 20.3991 10.5043 19.3953 10.5043 18.2122C10.5043 17.0292 11.5081 16.0253 12.6912 16.0253C13.8743 16.0253 14.8781 17.0292 14.8781 18.2122C14.8781 19.3953 13.9101 20.3991 12.6912 20.3991V20.3991ZM12.6912 16.7423C11.8667 16.7423 11.2213 17.4235 11.2213 18.2122C11.2213 19.001 11.9025 19.6822 12.6912 19.6822C13.4799 19.6822 14.1612 19.0367 14.1612 18.2122C14.1612 17.3877 13.5157 16.7423 12.6912 16.7423Z" fill="black"/>
</svg>
