<svg width="26" height="23" viewBox="0 0 26 23" fill="none" xmlns="http://www.w3.org/2000/svg">
<path fill-rule="evenodd" clip-rule="evenodd" d="M16.2079 22.0006H21.3139V11.4749C21.3139 
11.199 21.5377 10.9753 21.8136 10.9753H23.6752L20.6967 8.30463C20.5909 8.20988 
20.5305 8.0746 20.5305 7.93256V2.37917H18.1999V4.94703C18.1999 5.14417 18.084 
5.32283 17.904 5.40316C17.7239 5.48369 17.5134 5.45045 17.3665 5.31889L12.7402
 1.17089L1.80537 10.9752H3.66694C3.94283 10.9752 4.16662 11.199 4.16662 
 11.4749V22.0006H9.27268V17.3314C9.27268 15.4193 10.8282 13.8639 12.7402 
 13.8639C14.6522 13.8639 16.2077 15.4194 16.2077 17.3314L16.2079 
 22.0006ZM21.8136 23H15.7082C15.4323 23 15.2085 22.7762 15.2085 
 22.5003V17.3315C15.2085 15.9705 14.1014 14.8634 12.7404 14.8634C11.3794 
 14.8634 10.2723 15.9705 10.2723 17.3315V22.5003C10.2723 22.7762 10.0485 
 23 9.7726 23H3.66718C3.3911 23 3.16749 22.7762 3.16749 
 22.5003V11.9747H0.499739C0.292638 11.9747 0.10705 11.847 0.0330941 
 11.6536C-0.0410347 11.4602 0.0119401 11.2412 0.166243 11.1029L12.4071 
 0.127593C12.5968 -0.0425311 12.8844 -0.0425311 13.0743 0.127593L17.2008 
 3.82766V1.87935C17.2008 1.60328 17.4246 1.37967 17.7005 1.37967H21.0304C21.3065 
 1.37967 21.5301 1.6033 21.5301 1.87935V7.70944L25.315 11.1028C25.4691 11.2411 
 25.5221 11.4601 25.4481 11.6536C25.374 11.847 25.1884 11.9746 24.9813 
 11.9746H22.3135V22.5003C22.3135 22.7762 22.0899 23 21.8139 23L21.8136 23Z" fill="#000"/>
</svg>
