<svg width="23" height="22" viewBox="0 0 23 22" fill="none" xmlns="http://www.w3.org/2000/svg">
<path d="M22.9416 1.05139C22.9004 1.00659 22.843 0.981251 22.7829 0.981251H22.0586C22.0061 0.981251 21.9551 1.00072 21.9151 1.03625L19.4522 3.2349C17.3004 1.14714 14.4449 0 11.3871 0C5.10863 0 0 4.9343 0 11C0 17.0651 5.10793 22 11.3871 22C17.6661 22.0003 22.7733 17.0657 22.7733 11.0008C22.7733 10.2071 22.6853 9.4145 22.5117 8.64639L22.9995 1.21841C23.0037 1.15692 22.9825 1.09698 22.9415 1.05218L22.9416 1.05139ZM22.0893 8.44386H18.8435C18.8274 8.442 18.8116 8.442 18.7955 8.44386H15.1416L14.9385 8.163L17.1283 5.98539C17.1704 5.94337 17.1938 5.88528 17.1935 5.82503C17.1932 5.76478 17.1683 5.70731 17.1252 5.66591C15.5999 4.20199 13.5622 3.39591 11.3874 3.39591C6.94844 3.39591 3.33705 6.80696 3.33705 11C3.33705 15.1928 6.94828 18.6042 11.3874 18.6042C15.8264 18.6042 19.4378 15.1931 19.4378 11C19.4378 10.2801 19.3321 9.57077 19.1227 8.88666H22.1192C22.2649 9.57814 22.3386 10.2882 22.3386 11C22.3386 16.8211 17.4258 21.5563 11.3875 21.5563C5.34827 21.5563 0.435616 16.8207 0.435616 11C0.435616 5.17939 5.34843 0.44378 11.3867 0.44378C14.3912 0.44378 17.1922 1.59282 19.2762 3.679C19.2823 3.68611 19.289 3.69321 19.296 3.6997C19.3779 3.77664 19.5036 3.77849 19.5871 3.70372L22.1401 1.42446H22.5496L22.0893 8.44386ZM14.4759 8.27052L14.8565 8.7967C14.8975 8.85355 14.9627 8.88692 15.0313 8.88692H18.6654C18.8891 9.56913 19.0023 10.2792 19.0023 11.0003C19.0023 14.9487 15.5859 18.1613 11.3871 18.1613C7.18823 18.1613 3.77188 14.9493 3.77188 11.0003C3.77188 7.05132 7.18823 3.83928 11.3871 3.83928C13.3719 3.83928 15.2342 4.54528 16.659 5.83244L14.4984 7.98071C14.421 8.05795 14.4115 8.18154 14.4759 8.27052H14.4759Z" fill="black"/>
</svg>
