<svg width="25" height="26" viewBox="0 0 25 26" fill="none" xmlns="http://www.w3.org/2000/svg">
<path d="M7.20047 10.6542C3.16033 10.6542 0 9.05764 0 7.03765C0 6.1906 0.553854 5.40859 1.59654 4.75702L1.92245 5.31087C1.10792 5.83223 0.651778 6.41858 0.651778 7.03768C0.651778 8.63422 3.64926 10.0026 7.20062 10.0026C8.69948 10.0026 11.5665 9.44879 12.3485 8.92746L12.7069 9.48131C11.7619 10.1329 8.6992 10.6542 7.20058 10.6542L7.20047 10.6542Z" fill="black"/>
<path d="M7.20047 13.5212C3.16033 13.5212 0 11.9247 0 9.90469V7.03748H0.651568V9.90469C0.651568 11.5012 3.64905 12.8696 7.20041 12.8696C10.7517 12.8696 13.7493 11.5012 13.7493 9.90469V8.30815H14.4008V9.90469C14.4011 11.9249 11.2407 13.5212 7.20094 13.5212H7.20047Z" fill="black"/>
<path d="M8.63411 7.23305C4.59397 7.23305 1.43364 5.63651 1.43364 3.61653C1.43364 1.59654 4.59403 0 8.63411 0C12.6743 0 15.8346 1.59654 15.8346 3.61653C15.8344 5.63651 12.674 7.23305 8.63411 7.23305ZM8.63411 0.684208C5.08281 0.684208 2.08527 2.05262 2.08527 3.64917C2.08527 5.24571 5.08275 6.61412 8.63411 6.61412C12.1854 6.61412 15.183 5.24571 15.183 3.64917C15.183 2.05262 12.1855 0.684208 8.63411 0.684208Z" fill="black"/>
<path d="M8.63411 10.1002C4.59397 10.1002 1.43364 8.50365 1.43364 6.48367V3.61646H2.08521V6.48367C2.08521 8.08021 5.08269 9.44863 8.63405 9.44863C12.1854 9.44863 15.1829 8.08021 15.1829 6.48367V3.61646H15.8345V6.48367C15.8347 8.50365 12.6743 10.1002 8.63458 10.1002H8.63411Z" fill="black"/>
<path d="M10.1001 25.9998C6.09269 25.9998 2.93224 24.4033 2.93224 22.3833V19.5161H3.58381V22.3833C3.58381 23.9798 6.58129 25.3482 10.1001 25.3482C12.5762 25.3482 14.8243 24.6967 15.9647 23.6866L16.3883 24.1753C15.1502 25.283 12.7391 25.9998 10.1001 25.9998L10.1001 25.9998Z" fill="black"/>
<path d="M22.1227 24.4361C20.3307 24.4361 17.9849 22.644 16.2255 19.777C14.0426 16.2257 13.7494 12.6092 15.5087 11.534C17.268 10.4588 20.3634 12.381 22.5463 15.8998C24.7292 19.4511 25.0224 23.0677 23.2631 24.1429C22.9045 24.3383 22.5461 24.4361 22.1226 24.4361L22.1227 24.4361ZM16.649 11.8923C16.3558 11.8923 16.0951 11.9575 15.867 12.0877C14.4661 12.9675 14.8895 16.3233 16.7792 19.4511C18.7015 22.579 21.5035 24.4685 22.9045 23.589C24.3054 22.7092 23.882 19.3533 21.9922 16.2256C20.3959 13.619 18.1478 11.8923 16.6489 11.8923L16.649 11.8923Z" fill="black"/>
<path d="M19.6139 25.9999C18.9296 25.9999 18.115 25.7068 17.268 25.1854C15.9974 24.3709 14.7267 23.0025 13.7167 21.3409C11.5663 17.7896 11.2406 14.173 12.9999 13.0979L15.5088 11.5665L15.8672 12.1204L13.3583 13.619C11.9575 14.4988 12.3809 17.8546 14.2706 20.9824C15.2481 22.5462 16.4211 23.8496 17.6265 24.6314C18.7342 25.3482 19.7442 25.5437 20.396 25.1528L22.9049 23.6215L23.2308 24.1753L20.7219 25.7066C20.396 25.9023 20.0376 26 19.614 26L19.6139 25.9999Z" fill="black"/>
<path d="M10.3608 20.2982H10.2956C6.19043 20.2982 2.93224 18.6692 2.93224 16.584C2.93224 16.4537 2.93224 16.3233 2.96474 16.1931L3.61631 16.3233C3.58381 16.421 3.58381 16.4862 3.58381 16.584C3.58381 18.2455 6.67898 19.6467 10.3281 19.6467C11.2729 19.6467 12.2179 19.5489 13.1301 19.3535L13.2604 20.0051C12.3154 20.2005 11.3379 20.2982 10.3606 20.2982H10.3608Z" fill="black"/>
<path d="M10.4912 23.2305H10.3282C6.19055 23.2305 2.93224 21.6014 2.93224 19.5162V16.584H3.58381V19.5162C3.58381 21.1778 6.67898 22.5789 10.3281 22.5789C11.7942 22.6114 13.2279 22.3507 14.5962 21.8621L14.8244 22.4812C13.4233 22.9698 11.957 23.2305 10.4909 23.2305L10.4912 23.2305Z" fill="black"/>
<path d="M15.8345 11.9247L15.2154 11.6965C15.2806 11.5336 15.2806 11.4034 15.2806 11.2404C15.2806 10.3934 14.5313 9.77431 13.8797 9.41591L14.2056 8.86206C15.3133 9.51363 15.9324 10.3609 15.9324 11.2404C15.9649 11.4686 15.8997 11.6966 15.8345 11.9248L15.8345 11.9247Z" fill="black"/>
<path d="M8.66669 14.9548H8.53646C5.18059 14.9548 2.24827 13.847 1.40115 12.218L1.9875 11.9248C2.70429 13.2932 5.47382 14.3032 8.56893 14.3032C9.90482 14.3032 11.208 14.1077 12.4462 13.7168L12.6416 14.3359C11.3382 14.7593 10.0026 14.9548 8.66669 14.9548L8.66669 14.9548Z" fill="black"/>
<path d="M8.6667 17.8871H8.56897C4.43108 17.8871 1.17301 16.2581 1.17301 14.1729V11.7945H1.82458V14.1729C1.82458 15.8345 4.91975 17.2356 8.56891 17.2356C9.80706 17.2356 11.045 17.0726 12.2507 16.7142L12.4461 17.3333C11.208 17.7242 9.93729 17.8872 8.66662 17.8872L8.6667 17.8871Z" fill="black"/>
</svg>
