<svg width="26" height="20" viewBox="0 0 26 20" fill="none" xmlns="http://www.w3.org/2000/svg">
<path d="M20.2816 9.75722V7.44082V7.1099C20.2816 6.95451 20.1492 6.82214 19.9938 6.82214H18.9579H16.4688H13.4589H10.8576H10.0001C9.86769 6.82214 9.72668 6.81063 9.59432 6.82214H9.57705C9.67201 6.9171 9.76985 7.01494 9.86481 7.1099V3.42665V2.90869C9.76985 3.00365 9.67201 3.10148 9.57705 3.19644H10.613H13.1021H16.112H18.7133C19.1334 3.19644 19.5564 3.21371 19.9766 3.19644H19.9938C20.1492 3.19644 20.2816 3.06408 20.2816 2.90869V0.603758V0.275717C20.1176 0.344778 19.9535 0.410961 19.7895 0.480022C20.4341 1.01525 21.0787 1.55048 21.7261 2.08282C22.7534 2.93459 23.7807 3.78632 24.808 4.63805C25.041 4.83372 25.277 5.02651 25.5101 5.22221V4.81648C24.8655 5.35171 24.221 5.88694 23.5735 6.41927C22.5462 7.27105 21.5189 8.12278 20.4917 8.9745C20.2586 9.17018 20.0226 9.36297 19.7895 9.55867C19.6687 9.65651 19.6859 9.86369 19.7895 9.9644C19.9075 10.0824 20.0773 10.0651 20.1953 9.9644C20.8398 9.42917 21.4844 8.89394 22.1319 8.36161C23.1591 7.50983 24.1864 6.6581 25.2137 5.80638C25.4468 5.6107 25.6827 5.41791 25.9158 5.22221C26.028 5.13013 26.028 4.90856 25.9158 4.81648C25.2713 4.28125 24.6267 3.74602 23.9792 3.21369C22.952 2.36191 21.9246 1.51018 20.8974 0.658455C20.6643 0.462779 20.4283 0.269987 20.1953 0.0742907C20.0111 -0.0782171 19.7032 0.0109864 19.7032 0.278596V2.58352V2.91156C19.7982 2.8166 19.896 2.71877 19.991 2.62381H18.955H16.4659H13.456H10.8547C10.4346 2.62381 10.0116 2.60654 9.59144 2.62381H9.57418C9.41879 2.62381 9.28642 2.75617 9.28642 2.91156V6.59482V7.11278C9.28642 7.26816 9.41879 7.40053 9.57418 7.40053H10.6101H13.0992H16.1091H18.7104H19.5679C19.7003 7.40053 19.8413 7.41205 19.9737 7.40053H19.9909L19.7032 7.11278V9.42918V9.7601C19.7061 10.1255 20.2816 10.1284 20.2816 9.75722L20.2816 9.75722Z" fill="black"/>
<path d="M6.29679 19.3111V16.9947V16.6637C6.20183 16.7587 6.10399 16.8565 6.00904 16.9515H7.04498H9.53407H12.544H15.1453C15.5654 16.9515 15.9884 16.9688 16.4085 16.9515H16.4258C16.5812 16.9515 16.7136 16.8191 16.7136 16.6637V12.9805V12.4625C16.7136 12.3071 16.5812 12.1748 16.4258 12.1748H15.3899H12.9008H9.89088H7.28955H6.43204C6.29967 12.1748 6.15867 12.1633 6.02631 12.1748H6.00904C6.104 12.2697 6.20184 12.3676 6.2968 12.4625V10.1576V9.82956C6.2968 9.56195 5.9889 9.47275 5.80474 9.62526C5.16017 10.1605 4.5156 10.6957 3.86813 11.2281C2.84087 12.0798 1.81356 12.9316 0.786301 13.7833C0.55322 13.979 0.31726 14.1718 0.0841676 14.3674C-0.0280559 14.4595 -0.0280559 14.6811 0.0841676 14.7732C0.728737 15.3084 1.37331 15.8436 2.02077 16.376C3.04803 17.2278 4.07534 18.0795 5.1026 18.9312C5.33568 19.1269 5.57164 19.3197 5.80474 19.5154C5.92559 19.6132 6.09537 19.6333 6.21047 19.5154C6.31118 19.4147 6.33133 19.2075 6.21047 19.1096C5.5659 18.5744 4.92133 18.0392 4.27386 17.5068C3.2466 16.6551 2.21929 15.8033 1.19203 14.9516C0.958951 14.7559 0.722991 14.5631 0.489899 14.3674V14.7732C1.13447 14.2379 1.77904 13.7027 2.4265 13.1704C3.45376 12.3186 4.48107 11.4669 5.50833 10.6152C5.74141 10.4195 5.97738 10.2267 6.21047 10.031C6.04645 9.96192 5.88243 9.89574 5.71841 9.82668V12.1316V12.4597C5.71841 12.615 5.85077 12.7474 6.00616 12.7474H7.0421H9.53119H12.5411H15.1424H15.9999C16.1323 12.7474 16.2733 12.7589 16.4057 12.7474H16.4229C16.328 12.6524 16.2301 12.5546 16.1352 12.4597V16.1429V16.6609L16.4229 16.3731H15.387H12.8979H9.888H7.28667C6.86655 16.3731 6.44358 16.3558 6.02342 16.3731H6.00616C5.85077 16.3731 5.7184 16.5055 5.7184 16.6609V18.9773V19.3082C5.72128 19.6794 6.29678 19.6823 6.29678 19.3111L6.29679 19.3111Z" fill="black"/>
</svg>
