<svg width="50" height="50" viewBox="0 0 50 50" fill="none" xmlns="http://www.w3.org/2000/svg">
  <mask id="mask0_101_155" style="mask-type:alpha" maskUnits="userSpaceOnUse" x="0" y="0" width="50" height="50">
  <path fill-rule="evenodd" clip-rule="evenodd" d="M25 50C38.8071 50 50 38.8071 50 25C50 11.1929 38.8071 0 25 0C11.1929 0 0 11.1929 0 25C0 38.8071 11.1929 50 25 50ZM25 41.6667C34.2047 41.6667 41.6667 34.2047 41.6667 25C41.6667 15.7953 34.2047 8.33333 25 8.33333C15.7953 8.33333 8.33333 15.7953 8.33333 25C8.33333 34.2047 15.7953 41.6667 25 41.6667Z" fill="white"/>
  </mask>
  <g mask="url(#mask0_101_155)">
  <rect x="-4.16669" y="-4.16663" width="58.3333" height="58.3333" fill="url(#paint0_angular_101_155)"/>
  <ellipse cx="25" cy="45.8334" rx="4.16667" ry="4.16667" fill="#005758"/>
  </g>
  <defs>
  <radialGradient id="paint0_angular_101_155" cx="0" cy="0" r="1" gradientUnits="userSpaceOnUse" gradientTransform="translate(25 25) rotate(90) scale(29.1667)">
  <stop stop-color="#005758"/>
  <stop offset="1" stop-color="#005758" stop-opacity="0"/>
  </radialGradient>
  </defs>
</svg>
