<svg width="265" height="250" viewBox="0 0 265 250" fill="none" xmlns="http://www.w3.org/2000/svg">
<mask id="mask0_7_4" style="mask-type:alpha" maskUnits="userSpaceOnUse" x="0" y="0" width="196" height="196">
<path fill-rule="evenodd" clip-rule="evenodd" d="M98 196C152.124 196 196 152.124 196 98C196 43.8761 152.124 0 98 0C43.8761 0 0 43.8761 0 98C0 152.124 43.8761 196 98 196ZM98 163.333C134.083 163.333 163.333 134.083 163.333 98C163.333 61.9174 134.083 32.6667 98 32.6667C61.9174 32.6667 32.6667 61.9174 32.6667 98C32.6667 134.083 61.9174 163.333 98 163.333Z" fill="white"/>
</mask>
<g mask="url(#mask0_7_4)">
<rect x="-16.3333" y="-16.3333" width="228.667" height="228.667" fill="url(#paint0_angular_7_4)"/>
<ellipse cx="98.0001" cy="179.667" rx="16.3333" ry="16.3333" fill="#005758"/>
</g>
<path d="M167 23.5L164 26L186.5 55.5L188 55L190.5 53L192.5 51L194 49.5L195 47L196 44.5L196.5 41.5L197 39.5V37L196.5 34.5L196 33L195 30.5L194 29L192.5 27L190.5 24.5L189 23.5L186.5 22L183.5 20.5H181.5L179 20H176.5L173.5 20.5L170.5 21.5L167 23.5Z" fill="white"/>
<path d="M59.5 147.5L60.5 142L61 138.5L61.5 136L62 134.5V131V126.5V124L61.5 121.5L57.5 120.5L50 115.5L48 109L54.5 100L61 97.5L66.5 100.5L70 105L70.5 109.5L69.5 113.5V115L72 115.5H77H80.5L84.5 115L92 114L98 112.5L107.312 110H108.5L109 111.5L109.5 110V101L112.5 100.5V98.5V95.5V85V80.5L111.5 69L111 67L109.5 63.5L108 58.5L107.5 55.5L107 52.5V49.5V46V44.5L107.5 43.5V44L108 45L108.5 47L109 48.5V50L110.5 52.5V50.5V49.5V47.5V45V42.5L111 41V40H111.812L112.5 41V42.5L112.688 45L113 48L114 52L114.5 48L115 44L115.5 41L116 39.5L116.5 38.5L117 39L117.5 40.5V44V48.5L118 52L119 48.5L120.5 42L121.5 40H122L122.5 40.5V42L122 45L121.5 49.5V53.5V57L122.5 58L124 58.5L126 57L129 51H129.5V57.5L128.5 60L126.5 63.5L125 69V76.5L126 85.5L127.5 103.5L131.5 102.5L130 114L121.5 117.5L109.5 123V123.5L110.5 126.5V130L109.5 136.5L108 141L105 146L94.5 148L84 145L80.5 152L77 164L85 162.5L89 165.5L105.5 164L109.5 162.5L113 157.5L116 152L116.5 151V151.5L117 153L116.5 155.5V158L121 156H132.5L135.5 156.5H136.5L135.5 157L132.5 157.5L127 158V159L129 159.5L137 160.5L138 161L136.5 161.5H132.5H127V162.5L130.5 164L134.5 165L136.5 165.5L136 166H134H129L124.5 165L125.5 166L128.5 168.5L131.5 170.5V171H130L128 170.5L125.5 169.5L122.5 168L121 167L120 167.5L118.5 168.5L116.5 170.5L114 173.5L112 175.5L109.5 177L93 180.5L89 181L84.5 182.5L85 184L87 187.5H81.5H78H73.5L67.5 187L64 186.5L60.5 184L59 182L57 177.5L56.5 172V167.5L57 161.5L57.5 157.5L58.5 152L59.5 147.5Z" fill="white"/>
<path d="M221.663 174.999C223.92 174.999 225.751 173.169 225.751 170.911C225.751 168.654 223.92 166.824 221.663 166.824C219.405 166.824 217.575 168.654 217.575 170.911C217.575 173.169 219.405 174.999 221.663 174.999Z" fill="#F7C548"/>
<path d="M209.358 177.161C211.616 177.161 213.446 175.33 213.446 173.073C213.446 170.815 211.616 168.985 209.358 168.985C207.101 168.985 205.271 170.815 205.271 173.073C205.271 175.33 207.101 177.161 209.358 177.161Z" fill="#F7C548"/>
<path d="M118.169 72.5577C118.664 74.3212 118.512 76.204 117.739 77.8648C117.387 78.5979 116.832 79.214 116.138 79.6392C115.445 80.0644 114.644 80.2807 113.831 80.262C108.996 80.262 108.22 72.5993 111.213 69.7587C113.222 67.8188 117.005 68.3592 118.169 72.5577Z" fill="#F7C548"/>
<path d="M228.563 136.062C227.635 135.619 225.362 136.561 222.522 139.803C219.591 143.278 217.225 147.192 215.511 151.401C213.959 155.337 214.25 157.554 215.109 158.191C209.414 154.755 177.294 133.859 171.738 130.229L167.581 133C168.966 128.691 170.976 116.677 171.862 112.215C172.805 110.081 173.705 108.058 174.537 106.312L183.1 103.721C188.948 107.185 219.806 129.134 228.563 136.062Z" fill="#F7C548"/>
<path d="M133.923 113.185C151.535 91.0146 155.678 85.5413 159.752 83.1441C164.061 80.5807 166.86 79.6939 220.291 64.7842C219.307 65.1445 218.573 67.3338 218.767 71.7125C219.003 76.407 219.789 81.0575 221.108 85.569C222.383 89.726 223.88 91.3888 224.947 91.3056C214.679 94.0769 197.76 99.3563 174.509 106.354C166.708 122.982 153.724 158.094 135.711 160.062C132.842 159.688 129.697 159.203 127.078 158.676C138.856 158.094 137.872 155.628 135.794 155.614C131.346 155.614 121.785 155.323 121.009 155.475C119.443 155.982 117.952 156.695 116.575 157.595C118.404 149.572 116.256 149.378 115.508 151.471C114.918 153.08 114.195 154.637 113.346 156.126C109.956 153.307 107.046 149.956 104.728 146.205C110.63 140.205 112.03 128.566 110.09 123.065C114.261 121.25 133.23 113.421 133.923 113.185Z" fill="#F7C548"/>
<path d="M237.251 207.756C232.859 182.745 234.882 194.287 230.42 168.958C230.028 166.757 228.78 164.803 226.948 163.522C225.117 162.241 222.852 161.739 220.651 162.126L87.9611 185.488C87.8965 185.5 87.8347 185.524 87.7795 185.56C87.7243 185.596 87.6766 185.642 87.6392 185.696C87.6019 185.75 87.5756 185.811 87.5619 185.875C87.5482 185.939 87.5473 186.006 87.5593 186.07L85.9519 186.361L86.9357 187.927H80.5895C80.5931 187.836 80.572 187.747 80.5283 187.667C80.4847 187.588 80.4203 187.522 80.3419 187.476C80.2635 187.43 80.1742 187.407 80.0835 187.408C79.9929 187.41 79.9043 187.436 79.8274 187.484C78.3732 188.365 77.2177 189.664 76.511 191.211C75.8043 192.758 75.579 194.481 75.8644 196.158C78.3447 210.278 81.1714 226.351 82.6957 234.956C83.0878 237.157 84.3358 239.113 86.1666 240.396C87.9975 241.679 90.262 242.184 92.4645 241.801L230.42 217.483C232.61 217.087 234.555 215.844 235.834 214.023C237.113 212.202 237.622 209.95 237.251 207.756ZM221.732 167.225C222.469 167.225 223.19 167.444 223.803 167.854C224.416 168.263 224.894 168.845 225.176 169.526C225.458 170.208 225.532 170.957 225.388 171.68C225.244 172.403 224.889 173.067 224.368 173.589C223.846 174.11 223.182 174.465 222.459 174.609C221.736 174.752 220.987 174.679 220.306 174.397C219.624 174.114 219.042 173.637 218.633 173.024C218.223 172.411 218.005 171.69 218.005 170.953C218.005 169.964 218.397 169.016 219.096 168.317C219.795 167.618 220.743 167.225 221.732 167.225ZM209.4 169.401C210.137 169.401 210.858 169.62 211.471 170.029C212.083 170.439 212.561 171.021 212.843 171.702C213.125 172.383 213.199 173.132 213.055 173.856C212.912 174.579 212.557 175.243 212.035 175.764C211.514 176.285 210.85 176.64 210.127 176.784C209.404 176.928 208.654 176.854 207.973 176.572C207.292 176.29 206.71 175.812 206.3 175.199C205.891 174.586 205.672 173.866 205.672 173.128C205.67 172.638 205.766 172.153 205.952 171.7C206.139 171.247 206.413 170.835 206.76 170.489C207.106 170.142 207.518 169.868 207.971 169.681C208.424 169.494 208.91 169.399 209.4 169.401ZM230.184 216.513L92.2844 240.845C91.3254 241.015 90.3424 240.994 89.3916 240.783C88.4407 240.572 87.5407 240.177 86.7429 239.618C85.9451 239.06 85.2651 238.35 84.7419 237.528C84.2186 236.707 83.8623 235.791 83.6933 234.831L78.4833 205.262L231.057 178.352L236.254 207.936C236.592 209.872 236.149 211.864 235.022 213.474C233.895 215.084 232.175 216.182 230.24 216.527L230.184 216.513Z" fill="#005758"/>
<path d="M92.4231 229.081C92.3027 229.079 92.1868 229.035 92.0956 228.957C92.0044 228.878 91.9437 228.77 91.9242 228.651L89.3053 213.825C89.2935 213.759 89.2949 213.692 89.3095 213.627C89.324 213.562 89.3515 213.5 89.3903 213.446C89.429 213.392 89.4783 213.346 89.5351 213.311C89.5919 213.276 89.6551 213.253 89.721 213.243C233.288 187.844 223.339 189.604 223.589 189.784C223.838 189.964 223.589 188.731 226.36 204.943C226.374 205.008 226.375 205.075 226.362 205.14C226.349 205.205 226.323 205.266 226.285 205.321C226.248 205.375 226.199 205.422 226.143 205.457C226.087 205.492 226.024 205.515 225.958 205.525C87.601 229.996 92.5616 229.081 92.4231 229.081ZM90.3862 214.144L92.8249 228L225.335 204.638L222.896 190.782L90.3862 214.144Z" fill="#005758"/>
<path d="M98.4505 215.224C98.4439 215.177 98.4277 215.132 98.4029 215.091C98.378 215.051 98.345 215.016 98.306 214.988C98.267 214.961 98.2228 214.942 98.1761 214.933C98.1295 214.923 98.0814 214.923 98.0348 214.933C92.7 215.931 92.991 215.779 92.8802 215.945C92.7693 216.111 92.7278 215.515 94.3905 225.201C94.4106 225.296 94.4666 225.379 94.5467 225.433C94.6268 225.487 94.7248 225.509 94.8201 225.492C100.155 224.494 99.85 224.647 99.9747 224.481C100.099 224.314 100.141 224.91 98.4505 215.224Z" fill="#005758"/>
<path d="M106.917 222.998L105.337 214.019C105.32 213.922 105.266 213.835 105.185 213.778C105.105 213.721 105.005 213.698 104.908 213.714C99.5729 214.739 99.8777 214.559 99.753 214.74C99.6283 214.92 99.5867 214.31 101.277 223.996C101.293 224.076 101.336 224.149 101.399 224.202C101.462 224.255 101.541 224.285 101.624 224.287C101.762 224.287 102.538 224.134 106.626 223.414C106.718 223.394 106.799 223.34 106.853 223.263C106.906 223.186 106.929 223.091 106.917 222.998Z" fill="#005758"/>
<path d="M112.196 212.8C112.179 212.706 112.126 212.623 112.048 212.568C111.97 212.514 111.874 212.492 111.781 212.509C106.446 213.492 106.737 213.354 106.612 213.534C106.487 213.714 106.473 213.091 108.136 222.776C108.156 222.871 108.212 222.954 108.292 223.008C108.372 223.063 108.47 223.084 108.566 223.067C113.901 222.07 113.596 222.236 113.72 222.056C113.845 221.876 113.887 222.485 112.196 212.8Z" fill="#005758"/>
<path d="M119.069 211.594C119.063 211.547 119.046 211.502 119.022 211.461C118.997 211.42 118.964 211.385 118.925 211.358C118.886 211.331 118.841 211.312 118.795 211.302C118.748 211.293 118.7 211.293 118.653 211.303C113.319 212.287 113.61 212.148 113.485 212.315C113.36 212.481 113.333 211.885 115.009 221.571C115.026 221.664 115.079 221.747 115.157 221.802C115.235 221.856 115.331 221.878 115.425 221.862C120.774 220.864 120.469 221.017 120.593 220.85C120.718 220.684 120.76 221.28 119.069 211.594Z" fill="#005758"/>
<path d="M125.942 210.375C125.925 210.281 125.872 210.198 125.794 210.144C125.716 210.089 125.62 210.068 125.526 210.084C120.178 211.04 120.482 210.929 120.358 211.109C120.233 211.289 120.205 210.666 121.882 220.351C121.899 220.445 121.952 220.528 122.03 220.583C122.108 220.637 122.204 220.659 122.298 220.642C127.632 219.645 127.341 219.797 127.466 219.631C127.591 219.465 127.632 220.06 125.942 210.375Z" fill="#005758"/>
<path d="M134.395 218.148L132.815 209.169C132.808 209.122 132.792 209.077 132.767 209.036C132.742 208.995 132.709 208.96 132.67 208.933C132.631 208.906 132.587 208.887 132.541 208.877C132.494 208.868 132.446 208.868 132.399 208.878L127.466 209.737C127.419 209.746 127.373 209.763 127.332 209.79C127.292 209.816 127.257 209.85 127.229 209.89C127.202 209.93 127.184 209.975 127.174 210.023C127.165 210.071 127.165 210.119 127.175 210.167C128.907 219.866 128.727 219.257 128.907 219.381C129.087 219.506 128.907 219.492 134.104 218.564C134.151 218.557 134.196 218.541 134.237 218.516C134.277 218.491 134.312 218.458 134.34 218.419C134.367 218.38 134.386 218.336 134.395 218.29C134.405 218.243 134.405 218.195 134.395 218.148Z" fill="#005758"/>
<path d="M139.688 207.964C139.681 207.916 139.665 207.87 139.64 207.829C139.615 207.788 139.583 207.752 139.544 207.724C139.505 207.695 139.461 207.675 139.414 207.664C139.368 207.653 139.319 207.651 139.272 207.659C133.937 208.684 134.228 208.504 134.103 208.684C133.979 208.864 133.951 208.241 135.628 217.926C135.645 218.021 135.697 218.105 135.775 218.162C135.852 218.219 135.948 218.244 136.043 218.231C141.378 217.22 141.087 217.386 141.212 217.206C141.336 217.026 141.378 217.635 139.688 207.964Z" fill="#005758"/>
<path d="M146.56 206.73C146.54 206.639 146.486 206.558 146.409 206.504C146.332 206.45 146.238 206.427 146.145 206.439C140.796 207.396 141.101 207.285 140.976 207.451C140.851 207.617 140.824 207.021 142.5 216.707C142.507 216.754 142.523 216.8 142.548 216.84C142.573 216.881 142.606 216.916 142.645 216.943C142.684 216.97 142.728 216.989 142.775 216.999C142.821 217.008 142.87 217.008 142.916 216.998C148.251 216 147.96 216.153 148.085 215.987C148.209 215.82 148.209 216.43 146.56 206.73Z" fill="#005758"/>
<path d="M153.433 205.539C153.425 205.491 153.407 205.446 153.381 205.405C153.355 205.364 153.32 205.329 153.28 205.302C153.24 205.275 153.195 205.256 153.147 205.247C153.1 205.237 153.051 205.238 153.004 205.248C147.669 206.232 147.974 206.093 147.849 206.259C147.724 206.426 147.697 205.83 149.373 215.515C149.39 215.609 149.443 215.692 149.521 215.747C149.599 215.801 149.695 215.823 149.789 215.806C155.124 214.795 154.833 214.961 154.957 214.781C155.082 214.601 155.082 215.224 153.433 205.539Z" fill="#005758"/>
<path d="M161.886 213.298L160.306 204.319C160.289 204.226 160.236 204.143 160.158 204.088C160.08 204.034 159.984 204.012 159.89 204.028C154.556 205.068 154.847 204.874 154.722 205.04C154.597 205.206 154.556 204.61 156.246 214.296C156.259 214.379 156.301 214.456 156.364 214.511C156.427 214.567 156.508 214.599 156.593 214.601C156.745 214.601 157.507 214.435 161.595 213.714C161.642 213.708 161.687 213.691 161.728 213.667C161.769 213.642 161.804 213.609 161.831 213.57C161.858 213.531 161.877 213.486 161.887 213.44C161.896 213.393 161.896 213.345 161.886 213.298Z" fill="#005758"/>
<path d="M167.179 203.114C167.171 203.066 167.153 203.021 167.127 202.98C167.1 202.939 167.066 202.904 167.026 202.877C166.986 202.85 166.941 202.831 166.893 202.822C166.846 202.812 166.797 202.813 166.749 202.823C161.415 203.779 161.72 203.654 161.595 203.834C161.47 204.015 161.442 203.405 163.119 213.091C163.136 213.184 163.189 213.267 163.267 213.322C163.345 213.376 163.441 213.398 163.535 213.382C168.87 212.37 168.579 212.536 168.703 212.356C168.828 212.176 168.828 212.8 167.179 203.114Z" fill="#005758"/>
<path d="M185.719 160.796C187.977 160.796 189.807 158.966 189.807 156.708C189.807 154.451 187.977 152.621 185.719 152.621C183.461 152.621 181.631 154.451 181.631 156.708C181.631 158.966 183.461 160.796 185.719 160.796Z" fill="#F7C548"/>
<path d="M185.719 161.17C184.836 161.173 183.972 160.914 183.236 160.425C182.501 159.936 181.927 159.24 181.587 158.425C181.247 157.61 181.157 156.713 181.327 155.846C181.498 154.98 181.922 154.184 182.545 153.558C183.169 152.933 183.964 152.507 184.829 152.333C185.695 152.16 186.593 152.248 187.409 152.585C188.225 152.922 188.923 153.494 189.414 154.228C189.905 154.962 190.167 155.825 190.167 156.708C190.167 157.889 189.699 159.022 188.865 159.858C188.031 160.695 186.9 161.166 185.719 161.17ZM185.719 152.981C184.982 152.981 184.261 153.2 183.648 153.609C183.035 154.019 182.557 154.601 182.275 155.282C181.993 155.963 181.919 156.712 182.063 157.436C182.207 158.159 182.562 158.823 183.083 159.344C183.604 159.865 184.269 160.22 184.992 160.364C185.715 160.508 186.464 160.434 187.145 160.152C187.826 159.87 188.408 159.392 188.818 158.779C189.228 158.166 189.446 157.446 189.446 156.708C189.443 155.721 189.049 154.775 188.35 154.077C187.652 153.378 186.706 152.985 185.719 152.981Z" fill="#005758"/>
<path d="M98.1457 196.324C46.4748 197.183 0 154.076 0 98.123C0.025687 74.3441 8.67616 51.3818 24.3464 33.4966C40.0166 15.6114 61.6426 4.01769 85.2117 0.866557C108.781 -2.28457 132.693 3.22086 152.511 16.3614C172.329 29.5018 186.708 49.3852 192.98 72.3222C192.998 72.3859 193.003 72.4525 192.996 72.5183C192.988 72.5841 192.968 72.6478 192.936 72.7057C192.904 72.7636 192.86 72.8146 192.808 72.8558C192.757 72.8969 192.697 72.9275 192.633 72.9457C192.57 72.9639 192.503 72.9694 192.437 72.9618C192.371 72.9543 192.308 72.9338 192.25 72.9016C192.192 72.8695 192.141 72.8262 192.1 72.7743C192.059 72.7225 192.028 72.663 192.01 72.5993C187.246 55.1112 177.688 39.3031 164.415 26.9598C151.142 14.6165 134.683 6.22954 116.895 2.74589C99.1079 -0.737767 80.7008 0.820598 63.7522 7.24504C46.8036 13.6695 31.9885 24.7041 20.9796 39.1032C9.97063 53.5022 3.20632 70.6922 1.45032 88.7323C-0.305678 106.772 3.01657 124.944 11.042 141.196C19.0674 157.448 31.4763 171.132 46.8678 180.705C62.2593 190.277 80.0204 195.356 98.1457 195.368C116.598 195.33 134.661 190.062 150.242 180.176C165.822 170.29 178.282 156.191 186.176 139.512C186.233 139.39 186.337 139.294 186.464 139.248C186.591 139.201 186.732 139.206 186.855 139.263C186.976 139.323 187.068 139.427 187.112 139.554C187.156 139.681 187.148 139.821 187.091 139.942C179.115 156.772 166.535 170.999 150.809 180.977C135.083 190.955 116.853 196.276 98.2289 196.324H98.1457Z" fill="#005758"/>
<path d="M195.003 112.09C194.929 112.091 194.856 112.076 194.789 112.046C194.722 112.016 194.662 111.972 194.613 111.917C194.565 111.861 194.529 111.796 194.507 111.726C194.486 111.656 194.48 111.581 194.49 111.508C195.033 107.595 195.333 103.653 195.391 99.7027C195.394 99.5691 195.45 99.4423 195.546 99.3491C195.641 99.2559 195.77 99.2038 195.903 99.2039C196.037 99.2075 196.164 99.2631 196.257 99.3588C196.35 99.4546 196.402 99.5829 196.402 99.7165C196.345 103.708 196.044 107.692 195.502 111.647C195.485 111.768 195.426 111.88 195.334 111.961C195.243 112.042 195.125 112.088 195.003 112.09Z" fill="#005758"/>
<path d="M178.001 19.2101C174.098 19.2101 170.283 20.3673 167.038 22.5355C163.794 24.7036 161.264 27.7853 159.771 31.3908C158.278 34.9963 157.887 38.9637 158.648 42.7912C159.41 46.6188 161.289 50.1347 164.048 52.8942C166.808 55.6537 170.324 57.533 174.151 58.2943C177.979 59.0557 181.946 58.6649 185.552 57.1715C189.157 55.678 192.239 53.149 194.407 49.9041C196.575 46.6592 197.732 42.8443 197.732 38.9418C197.725 33.7109 195.644 28.6963 191.945 24.9975C188.246 21.2986 183.232 19.2174 178.001 19.2101ZM186.315 55.7359C180.922 44.5805 173.46 34.5508 164.324 26.1799C166.191 24.1623 168.479 22.5808 171.025 21.5477C173.572 20.5147 176.316 20.0555 179.06 20.2029C181.804 20.3504 184.483 21.1007 186.904 22.4007C189.326 23.7006 191.431 25.5181 193.071 27.7241C194.71 29.93 195.843 32.47 196.39 35.1636C196.936 37.8571 196.882 40.638 196.232 43.3083C195.581 45.9787 194.351 48.473 192.627 50.6137C190.903 52.7545 188.729 54.4891 186.259 55.6943L186.315 55.7359Z" fill="#005758"/>
<path d="M79.1345 78.225C79.1229 78.1604 79.0985 78.0986 79.0629 78.0434C79.0273 77.9882 78.9812 77.9405 78.9271 77.9032C78.873 77.8658 78.8121 77.8395 78.7478 77.8258C78.6835 77.8121 78.6172 77.8112 78.5526 77.8232L76.7097 78.1419C76.2882 75.8379 75.4042 73.6432 74.111 71.6903C72.8178 69.7374 71.1423 68.0669 69.1856 66.7795C70.5673 64.9192 71.5614 62.8004 72.1088 60.5487C72.6563 58.297 72.746 55.9583 72.3726 53.6713L74.2293 53.3526C74.3619 53.3257 74.479 53.2488 74.5564 53.1378C74.6338 53.0269 74.6655 52.8904 74.645 52.7567C74.6182 52.625 74.5407 52.5091 74.4293 52.4339C74.3179 52.3588 74.1814 52.3304 74.0492 52.3549L58.2112 55.1262C58.0789 55.1372 57.9564 55.2004 57.8706 55.3017C57.7849 55.4031 57.7429 55.5343 57.7539 55.6666C57.765 55.7989 57.8281 55.9214 57.9294 56.0072C58.0308 56.0929 58.162 56.1349 58.2943 56.1239L60.262 55.7775C60.6919 58.0531 61.5745 60.2191 62.8575 62.1472C64.1405 64.0752 65.7976 65.7258 67.7306 67.0012C66.3322 68.8795 65.3288 71.0217 64.7811 73.2984C64.2333 75.5752 64.1526 77.9393 64.5436 80.2481L62.7007 80.6361C62.5681 80.663 62.451 80.7399 62.3736 80.8508C62.2962 80.9617 62.2645 81.0982 62.285 81.2319C62.3118 81.3636 62.3893 81.4795 62.5007 81.5547C62.6122 81.6298 62.7487 81.6582 62.8808 81.6337L78.7327 78.8624C78.8033 78.8516 78.8708 78.8257 78.9305 78.7865C78.9903 78.7474 79.0409 78.6958 79.079 78.6354C79.1171 78.575 79.1418 78.507 79.1514 78.4362C79.161 78.3654 79.1552 78.2934 79.1345 78.225ZM61.2596 55.6943L71.3887 53.9068C71.7345 56.0582 71.648 58.2569 71.134 60.3744C70.6201 62.4919 69.6892 64.4856 68.3957 66.2391C66.5578 65.0523 64.9784 63.5065 63.7522 61.6946C62.5259 59.8826 61.6782 57.8418 61.2596 55.6943ZM68.5759 67.6386C70.4292 68.8489 72.0166 70.424 73.2411 72.2679C74.4656 74.1118 75.3016 76.1859 75.6981 78.3636L65.5413 80.1511C65.164 77.9622 65.2386 75.7193 65.7605 73.5603C66.2824 71.4013 67.2405 69.372 68.5759 67.5971V67.6386Z" fill="#005758"/>
<path d="M228.757 113.531C228.625 113.542 228.494 113.501 228.392 113.415C228.291 113.329 228.228 113.207 228.217 113.074C228.206 112.942 228.248 112.811 228.334 112.709C228.419 112.608 228.542 112.545 228.674 112.534L235.699 111.287C235.765 111.275 235.832 111.276 235.897 111.291C235.962 111.305 236.024 111.333 236.078 111.372C236.132 111.41 236.178 111.46 236.213 111.516C236.248 111.573 236.271 111.636 236.281 111.702C236.295 111.767 236.296 111.834 236.283 111.899C236.27 111.964 236.244 112.026 236.206 112.08C236.169 112.135 236.12 112.181 236.064 112.216C236.008 112.251 235.945 112.275 235.879 112.284C229.131 113.476 228.896 113.531 228.757 113.531Z" fill="#005758"/>
<path d="M248.253 110.095C248.121 110.108 247.989 110.068 247.886 109.983C247.784 109.899 247.719 109.777 247.706 109.645C247.693 109.512 247.733 109.38 247.818 109.278C247.902 109.175 248.024 109.11 248.156 109.097L255.182 107.85C255.247 107.838 255.314 107.84 255.38 107.854C255.445 107.869 255.506 107.897 255.56 107.935C255.615 107.974 255.661 108.023 255.695 108.08C255.73 108.137 255.753 108.2 255.764 108.266C255.776 108.331 255.775 108.397 255.761 108.461C255.747 108.526 255.721 108.586 255.684 108.641C255.646 108.695 255.599 108.741 255.543 108.776C255.488 108.812 255.426 108.836 255.362 108.848C248.53 110.067 248.392 110.095 248.253 110.095Z" fill="#005758"/>
<path d="M240.923 104.954C240.804 104.956 240.689 104.915 240.597 104.839C240.506 104.762 240.444 104.656 240.425 104.539L239.177 97.5272C239.157 97.3935 239.189 97.257 239.266 97.1461C239.343 97.0352 239.461 96.9583 239.593 96.9314C239.725 96.9112 239.86 96.9433 239.969 97.021C240.077 97.0986 240.151 97.2156 240.175 97.347L241.408 104.372C241.42 104.443 241.417 104.516 241.398 104.585C241.379 104.655 241.346 104.72 241.3 104.775C241.254 104.83 241.196 104.875 241.131 104.906C241.066 104.937 240.995 104.953 240.923 104.954Z" fill="#005758"/>
<path d="M244.374 124.45C244.254 124.452 244.139 124.411 244.047 124.335C243.956 124.259 243.895 124.152 243.875 124.035L242.628 117.009C242.616 116.944 242.617 116.876 242.632 116.811C242.646 116.746 242.674 116.685 242.713 116.631C242.751 116.576 242.801 116.53 242.857 116.496C242.914 116.461 242.977 116.437 243.043 116.427C243.108 116.415 243.174 116.416 243.239 116.43C243.303 116.444 243.364 116.47 243.418 116.507C243.472 116.545 243.518 116.592 243.554 116.648C243.589 116.703 243.614 116.765 243.625 116.829L244.859 123.855C244.873 123.927 244.871 124.001 244.853 124.072C244.836 124.143 244.802 124.21 244.756 124.266C244.71 124.323 244.651 124.369 244.585 124.401C244.519 124.433 244.447 124.45 244.374 124.45Z" fill="#005758"/>
<path d="M236.836 107.559C236.6 107.559 237.057 107.836 230.697 103.402C230.589 103.327 230.515 103.212 230.492 103.082C230.468 102.952 230.497 102.818 230.572 102.71C230.61 102.654 230.658 102.607 230.714 102.57C230.77 102.534 230.833 102.509 230.899 102.497C230.965 102.486 231.033 102.487 231.098 102.502C231.163 102.517 231.225 102.545 231.279 102.585L237.127 106.742C237.184 106.809 237.223 106.889 237.24 106.976C237.256 107.063 237.249 107.152 237.219 107.235C237.19 107.318 237.139 107.392 237.071 107.449C237.004 107.506 236.923 107.544 236.836 107.559Z" fill="#005758"/>
<path d="M253.048 118.908C252.812 118.908 253.269 119.185 246.909 114.751C246.801 114.675 246.727 114.56 246.704 114.43C246.681 114.3 246.71 114.167 246.785 114.058C246.822 114.003 246.87 113.955 246.926 113.919C246.983 113.882 247.046 113.857 247.112 113.846C247.177 113.834 247.245 113.836 247.31 113.851C247.376 113.866 247.437 113.894 247.491 113.933L253.339 118.049C253.408 118.114 253.457 118.198 253.481 118.291C253.504 118.384 253.5 118.481 253.469 118.572C253.438 118.662 253.382 118.742 253.308 118.802C253.233 118.861 253.143 118.898 253.048 118.908Z" fill="#005758"/>
<path d="M245.648 106.007C245.556 106.009 245.464 105.985 245.384 105.938C245.305 105.891 245.239 105.823 245.196 105.741C245.153 105.659 245.134 105.567 245.14 105.474C245.147 105.382 245.179 105.293 245.233 105.218L249.32 99.3701C249.401 99.2638 249.518 99.1919 249.649 99.1687C249.78 99.1456 249.915 99.173 250.027 99.2454C250.083 99.2828 250.13 99.3311 250.166 99.3872C250.203 99.4434 250.228 99.5063 250.239 99.5723C250.251 99.6382 250.249 99.7058 250.234 99.7711C250.219 99.8363 250.191 99.8979 250.152 99.9521L246.064 105.8C246.017 105.865 245.954 105.919 245.882 105.955C245.809 105.991 245.729 106.009 245.648 106.007Z" fill="#005758"/>
<path d="M234.3 122.206C234.207 122.208 234.116 122.184 234.036 122.137C233.956 122.09 233.891 122.021 233.848 121.939C233.805 121.857 233.785 121.765 233.792 121.672C233.798 121.58 233.83 121.491 233.884 121.416L237.972 115.568C238.05 115.459 238.168 115.385 238.3 115.362C238.432 115.338 238.568 115.368 238.679 115.444C238.785 115.524 238.857 115.641 238.88 115.773C238.903 115.904 238.876 116.039 238.803 116.15L234.674 122.012C234.629 122.069 234.572 122.115 234.508 122.149C234.443 122.182 234.373 122.202 234.3 122.206Z" fill="#005758"/>
<path d="M61.3567 214.352L51.5463 207.493L58.4746 197.682C58.5139 197.628 58.5419 197.566 58.557 197.501C58.572 197.436 58.5738 197.368 58.5622 197.302C58.5505 197.236 58.5257 197.173 58.4893 197.117C58.4528 197.061 58.4054 197.013 58.3498 196.975C58.2381 196.903 58.1031 196.876 57.972 196.899C57.8408 196.922 57.7234 196.994 57.6432 197.1L50.7149 206.911L40.9045 199.982C40.796 199.907 40.6622 199.878 40.5323 199.902C40.4025 199.925 40.2872 199.999 40.2117 200.107C40.1723 200.161 40.1443 200.223 40.1292 200.288C40.1142 200.353 40.1124 200.421 40.124 200.487C40.1357 200.553 40.1605 200.616 40.197 200.672C40.2334 200.728 40.2808 200.776 40.3364 200.814L50.1468 207.742L43.2185 217.539C43.163 217.649 43.149 217.775 43.1791 217.894C43.2091 218.014 43.2813 218.119 43.3823 218.189C43.4832 218.26 43.6063 218.292 43.7289 218.279C43.8516 218.267 43.9655 218.21 44.0499 218.12L50.9782 208.31L60.7886 215.238C60.9062 215.314 61.0489 215.339 61.1853 215.309C61.3218 215.279 61.4407 215.197 61.5161 215.079C61.5914 214.961 61.6169 214.819 61.587 214.682C61.5572 214.546 61.4743 214.427 61.3567 214.352Z" fill="#005758"/>
<path d="M199.506 235.982L200.892 233.46C200.926 233.403 200.948 233.34 200.956 233.274C200.965 233.209 200.96 233.142 200.942 233.078C200.923 233.015 200.892 232.956 200.851 232.904C200.809 232.853 200.757 232.811 200.698 232.781C200.584 232.715 200.449 232.697 200.321 232.731C200.194 232.765 200.086 232.847 200.019 232.961C198.633 235.483 198.051 236.37 197.885 236.744C197.851 236.791 197.827 236.844 197.814 236.9C197.802 236.957 197.8 237.015 197.811 237.072C197.821 237.129 197.843 237.183 197.875 237.232C197.906 237.28 197.948 237.321 197.996 237.353C198.273 237.561 199.104 238.005 201.834 239.557C201.952 239.622 202.091 239.638 202.22 239.602C202.35 239.565 202.46 239.479 202.527 239.363C202.589 239.244 202.603 239.107 202.567 238.978C202.531 238.849 202.447 238.739 202.333 238.67L199.437 237.035C200.67 236.612 202.004 236.592 203.249 236.976C204.494 237.361 205.584 238.131 206.363 239.175C207.143 240.22 207.57 241.484 207.584 242.787C207.599 244.09 207.199 245.364 206.443 246.425C205.687 247.486 204.613 248.279 203.377 248.691C202.141 249.103 200.806 249.112 199.565 248.716C198.323 248.321 197.24 247.541 196.47 246.49C195.7 245.439 195.283 244.171 195.28 242.868C195.277 242.733 195.221 242.605 195.126 242.51C195.031 242.414 194.902 242.359 194.767 242.356C194.634 242.359 194.507 242.415 194.414 242.511C194.321 242.606 194.269 242.735 194.269 242.868C194.275 244.368 194.752 245.827 195.632 247.041C196.512 248.255 197.751 249.162 199.173 249.635C200.596 250.107 202.131 250.122 203.563 249.676C204.994 249.23 206.25 248.346 207.152 247.149C208.055 245.952 208.559 244.502 208.594 243.003C208.629 241.504 208.193 240.032 207.347 238.794C206.501 237.556 205.288 236.615 203.879 236.103C202.47 235.591 200.936 235.534 199.492 235.94L199.506 235.982Z" fill="#005758"/>
<path d="M263.995 149.323C254.046 144.639 240.341 146.261 228.785 142.09C229.866 139.956 230.476 136.27 228.785 135.425C220.18 128.593 192.024 108.599 184.278 103.763C186.938 102.959 217.381 93.7166 225.016 91.6381C227.261 91.3749 227.302 87.1902 227.053 84.9316C230.52 84.5323 234.015 84.4165 237.501 84.5852C237.616 84.6017 237.733 84.5736 237.829 84.5067C237.924 84.4397 237.99 84.3389 238.014 84.2249C242.392 68.6917 243.639 50.7614 243.972 43.7777C243.979 43.6827 243.96 43.5876 243.915 43.5035C243.87 43.4195 243.802 43.35 243.719 43.3034C243.636 43.2567 243.541 43.2349 243.446 43.2403C243.351 43.2458 243.259 43.2784 243.182 43.3343C232 50.8861 230.711 62.5117 223.866 68.276C222.91 65.3523 221.524 63.7588 220.236 64.1191C165.682 79.0149 163.812 80.0125 159.475 82.576C154.916 85.2641 149.498 92.5388 133.605 112.617C132.995 112.825 132.067 113.185 130.833 113.656C131.318 111.12 132.219 105.204 132.579 101.656C132.585 101.283 132.5 100.914 132.331 100.58C132.162 100.247 131.914 99.9602 131.609 99.7442C130.473 98.9846 129.171 98.5093 127.813 98.3586C127.272 91.3056 125.873 74.0819 125.873 70.5069C125.873 65.7957 129.6 59.5464 129.753 59.297C130.778 57.6204 130.75 55.819 130.598 51.5235C130.598 50.5536 130.168 49.93 129.559 49.8607C128.575 49.736 127.591 51.094 126.787 53.7128C126.122 55.8745 124.404 57.5511 123.434 57.3848C122.464 57.2185 122.215 55.819 122.27 53.5327C122.367 49.3757 123.06 43.4313 123.198 41.8378C123.337 40.2443 122.935 38.8864 122.076 38.7339C121.217 38.5815 120.275 39.6623 119.734 41.6577C119.374 42.9048 118.737 45.2465 118.196 47.5328C118.085 44.9278 118.071 42.6276 118.044 40.3274C118.044 38.5538 117.476 37.473 116.658 37.4037C115.841 37.3344 114.954 38.5122 114.607 40.5491C114.33 42.2674 114.025 44.4428 113.79 46.5213C113.499 44.4013 113.374 43.0018 113.236 41.6992C112.945 39.2051 111.988 38.9279 111.545 38.9279C110.589 38.9279 109.952 40.2027 109.799 42.2951C109.702 44.138 109.647 46.0086 109.633 47.8377C109.411 46.7569 109.273 46.0086 109.051 44.817C108.732 43.1126 108.053 42.1842 107.263 42.2674C106.474 42.3505 105.878 43.653 105.878 45.6761C105.837 49.3492 106.097 53.0195 106.654 56.6504C107.305 59.6157 110.007 67.3477 110.603 69.4123C108.067 72.1836 108.386 77.9202 111.406 79.8739C111.406 79.8739 111.406 93.9383 111.406 96.9452C108.801 97.5826 108.524 98.802 108.635 99.5225C108.538 101.379 108.455 105.98 108.4 108.931C98.8386 111.148 80.0907 116.109 71.2919 114.474C72.7369 112.268 73.7045 109.784 74.1322 107.182C74.56 104.58 74.4385 101.917 73.7756 99.3649C73.1127 96.8126 71.923 94.4273 70.2831 92.3622C68.6432 90.2972 66.5892 88.5982 64.2534 87.3744C61.9176 86.1507 59.3515 85.4292 56.7202 85.2565C54.0889 85.0838 51.4505 85.4636 48.9747 86.3715C46.499 87.2795 44.2406 88.6954 42.3448 90.5284C40.449 92.3613 38.9578 94.5707 37.9669 97.0145C36.5589 95.5505 34.7453 94.541 32.7591 94.1156C30.7729 93.6903 28.7049 93.8686 26.8208 94.6276C24.9367 95.3866 23.3227 96.6916 22.186 98.375C21.0493 100.058 20.4419 102.043 20.4419 104.074C20.4419 106.106 21.0493 108.09 22.186 109.774C23.3227 111.457 24.9367 112.762 26.8208 113.521C28.7049 114.28 30.7729 114.458 32.7591 114.033C34.7453 113.608 36.5589 112.598 37.9669 111.134C39.7207 115.44 42.9979 118.95 47.1737 120.995C51.3496 123.039 56.1318 123.475 60.6085 122.219C61.9941 129.425 60.7886 134.344 59.5554 141.369C56.7841 156.847 53.4308 176.107 58.1697 182.468C63.2828 189.396 69.8092 188.204 87.8365 188.204C90.5247 188.357 91.4531 184.269 91.5224 181.442C96.483 180.514 102.608 179.295 106.889 178.422C112.432 177.285 113.998 175.248 115.785 172.879C116.741 171.604 116.52 171.937 117.49 170.703C119.083 168.722 120.122 167.544 121.286 168.154C124.847 170.038 130.986 172.948 131.997 171.341C132.233 170.967 132.177 170.343 131.332 169.72C129.614 168.445 128.298 167.392 127.175 166.408C129.392 166.81 136.875 168.001 137.457 165.826C137.568 165.383 137.346 164.759 136.362 164.44L130.473 162.639C132.579 162.708 139.12 162.764 139.341 160.671C139.353 160.439 139.285 160.209 139.149 160.021C139.013 159.832 138.817 159.695 138.593 159.632C146.533 157.263 153.406 148.824 159.225 138.93C163.507 136.021 167.539 133.263 171.807 130.45C178.458 134.787 209.344 154.879 214.915 158.163C216.924 159.355 219.543 156.778 220.901 154.893C222.657 156.702 224.507 158.418 226.443 160.034C227.829 161.045 251.385 155.78 264.036 149.974C264.109 149.879 264.144 149.76 264.137 149.641C264.129 149.521 264.079 149.408 263.995 149.323ZM225.931 67.7079C231.681 61.6526 233.51 51.6205 242.933 44.7477C242.531 52.2579 241.228 68.9412 237.168 83.5459C231.899 83.3228 226.623 83.7416 221.455 84.793C220.27 80.5784 219.541 76.2489 219.28 71.8787C221.823 71.0931 224.116 69.6551 225.931 67.7079ZM127.203 102.876C122.238 103.159 117.26 102.668 112.446 101.421C112.446 98.8574 112.446 80.4144 112.446 80.4144C113.48 80.7296 114.59 80.6862 115.596 80.2913C116.602 79.8964 117.445 79.1732 117.988 78.2389C120.442 78.3167 122.89 77.9409 125.208 77.1304C125.776 84.793 126.94 98.9267 127.203 102.876ZM107.679 56.4841C107.138 52.9216 106.888 49.3208 106.931 45.7176C106.833 44.8876 106.987 44.0474 107.374 43.3066C107.471 43.3066 107.845 43.7223 108.095 45.0525C109.633 53.214 109.688 51.3295 109.799 53.6574C109.819 53.7772 109.881 53.886 109.973 53.9645C110.066 54.043 110.183 54.0861 110.305 54.0861C110.426 54.0861 110.544 54.043 110.636 53.9645C110.729 53.886 110.791 53.7772 110.811 53.6574C110.617 49.914 110.617 46.1631 110.811 42.4198C110.935 40.6739 111.406 40.0365 111.559 40.0087C111.711 39.981 112.058 40.3967 112.224 41.8655C112.543 44.6368 112.751 47.0063 113.388 50.4843C113.388 51.2187 113.277 51.8699 113.263 52.341C113.283 52.4608 113.345 52.5696 113.438 52.6481C113.53 52.7266 113.648 52.7697 113.769 52.7697C113.89 52.7697 114.008 52.7266 114.101 52.6481C114.193 52.5696 114.255 52.4608 114.275 52.341C114.372 49.736 115.065 43.944 115.66 40.7293C115.951 39.0111 116.492 38.4291 116.63 38.4291C116.769 38.4291 117.115 38.8586 117.129 40.3552C117.282 52.0639 117.587 50.6228 117.42 51.8422C117.4 51.9745 117.433 52.1094 117.512 52.2173C117.592 52.3251 117.711 52.397 117.843 52.4173C117.975 52.4375 118.11 52.4043 118.218 52.325C118.326 52.2458 118.398 52.1269 118.418 51.9946C119.018 48.5984 119.814 45.2395 120.801 41.9348C121.3 40.1196 121.896 39.7455 121.993 39.7455C122.09 39.7455 122.422 40.2443 122.284 41.7685C122.145 43.2927 121.452 49.1956 121.355 53.5189C121.258 57.274 122.409 58.2439 123.379 58.3963C125.138 58.6735 127.148 56.3179 127.84 54.0177C128.63 51.4542 129.365 50.8861 129.489 50.8584C129.625 51.0729 129.689 51.3256 129.669 51.5789C129.822 55.6528 129.85 57.3571 128.977 58.7843C127.092 61.9159 124.903 66.932 124.944 70.7425C122.893 71.4776 120.735 71.8753 118.556 71.9203C117.268 67.9851 113.734 67.2922 111.503 68.761C110.741 66.3361 108.261 59.1169 107.679 56.4841ZM113.79 69.0382C119.014 68.9412 119.637 79.5968 113.79 79.5968C108.58 79.583 108.691 69.149 113.79 69.0382ZM57.4908 111.993C57.0335 111.495 56.6317 111.259 56.313 111.287C52.8765 111.508 52.0174 108.515 55.3984 109.125C56.2298 109.291 56.6039 108.987 56.7841 108.709C57.3245 107.809 56.1328 105.938 54.8857 104.317C57.3187 102.922 59.5358 101.181 61.4676 99.1484C67.4397 104.081 70.5713 108.515 69.6706 110.774C69.0887 112.257 66.7469 112.894 62.8948 112.617C62.7784 112.604 62.6612 112.633 62.5638 112.698C62.4663 112.763 62.3948 112.86 62.3618 112.972C62.3287 113.084 62.3362 113.205 62.383 113.312C62.4298 113.419 62.5129 113.507 62.6177 113.559C66.1927 115.444 72.7606 115.915 75.6428 115.915C76.8899 115.915 78.2063 115.915 79.5919 115.735C77.8737 123.37 71.4859 129.965 61.9249 133.998C62.4393 129.898 62.2848 125.743 61.4676 121.693C61.4676 121.693 61.4676 121.693 61.4676 121.596C60.9102 118.116 59.5485 114.813 57.4908 111.952V111.993ZM58.9596 182.08C53.5139 174.736 59.9988 145.914 61.7309 135.189C72.054 131.032 78.913 123.91 80.6312 115.665C88.28 114.848 99.0465 112.229 108.413 110.123C108.413 110.816 108.413 111.342 108.413 111.508C108.412 111.575 108.423 111.641 108.447 111.704C108.472 111.766 108.508 111.822 108.555 111.87C108.601 111.918 108.657 111.956 108.718 111.982C108.78 112.008 108.846 112.021 108.912 112.021C109.046 112.021 109.174 111.969 109.27 111.876C109.366 111.783 109.421 111.656 109.425 111.522C109.425 110.469 109.522 104.469 109.619 101.116C111.199 102.405 114.677 103.319 119.748 103.763C122.713 104.012 128.88 104.386 131.512 102.987C131.041 106.922 130.127 112.423 129.822 114.072C123.988 116.414 114.178 120.543 110.09 122.386C93.6563 114.682 90.1644 115.915 82.7373 117.328C82.6727 117.34 82.6109 117.364 82.5557 117.4C82.5005 117.435 82.4528 117.482 82.4155 117.536C82.3781 117.59 82.3518 117.651 82.3381 117.715C82.3244 117.779 82.3235 117.845 82.3355 117.91C82.3471 117.976 82.3718 118.039 82.4083 118.096C82.4449 118.152 82.4923 118.2 82.548 118.238C82.6036 118.275 82.6662 118.301 82.7321 118.314C82.798 118.327 82.8657 118.326 82.9313 118.312C90.109 116.926 93.49 115.707 109.674 123.314C111.351 128.469 110.146 139.776 104.437 145.651C101.361 146.51 98.035 147.314 94.7371 148.048C91.3412 147.271 88.0245 146.181 84.8297 144.792C84.9821 144.473 85.1484 144.154 85.3008 143.85C85.3317 143.791 85.3509 143.728 85.3572 143.662C85.3635 143.596 85.3568 143.53 85.3375 143.467C85.3182 143.404 85.2867 143.345 85.2447 143.294C85.2028 143.244 85.1512 143.201 85.093 143.171C85.0347 143.14 84.971 143.12 84.9053 143.114C84.8397 143.108 84.7735 143.115 84.7104 143.134C84.6474 143.153 84.5888 143.185 84.5379 143.227C84.487 143.269 84.4449 143.32 84.414 143.378C81.2488 149.745 78.6969 156.398 76.7929 163.249C74.562 163.65 72.4974 164.011 71.084 164.232C70.9932 164.277 70.918 164.348 70.8683 164.436C70.8186 164.524 70.7969 164.625 70.8059 164.725C70.8149 164.826 70.8543 164.921 70.9188 164.999C70.9833 165.077 71.0699 165.133 71.1672 165.161C71.4581 165.161 81.8921 163.29 84.8158 162.819C83.6934 164.413 82.6819 167.891 83.0561 175.387C83.2223 178.713 83.8043 184.823 86.0075 187.304C69.6429 187.428 63.6292 188.315 58.9596 182.038V182.08ZM109.176 161.392C108.112 162.096 106.985 162.699 105.808 163.193C104.575 163.387 96.5939 164.274 89.9982 164.828C89.6379 162.958 88.4462 161.336 86.5756 161.586C84.705 161.835 81.1993 162.459 77.9153 162.972C78.9998 159.091 80.3139 155.278 81.8505 151.554C89.0421 150.251 97.4114 148.588 104.492 146.593C106.732 150.145 109.498 153.336 112.695 156.057C111.67 157.916 110.493 159.686 109.176 161.35V161.392ZM116.423 150.778C116.423 150.778 117.323 151.637 116.104 157.166C114.621 158.025 113 159.022 111.476 159.937C115.078 154.713 115.785 151.304 116.423 150.736V150.778ZM126.455 161.6C125.637 161.309 124.861 161.032 124.154 160.754C124.093 160.73 124.027 160.718 123.96 160.72C123.894 160.721 123.828 160.736 123.768 160.763C123.707 160.79 123.652 160.829 123.607 160.878C123.562 160.926 123.526 160.983 123.503 161.045C123.478 161.106 123.466 161.172 123.466 161.237C123.467 161.303 123.481 161.368 123.506 161.429C123.532 161.489 123.57 161.544 123.617 161.59C123.664 161.636 123.719 161.672 123.78 161.697C127.092 162.999 131.9 164.357 136.002 165.632C136.265 165.715 136.39 165.812 136.418 165.784C136.168 166.131 133.646 166.99 125.568 165.299L124.002 163.914C123.901 163.827 123.77 163.785 123.637 163.795C123.505 163.806 123.382 163.868 123.295 163.969C123.209 164.07 123.166 164.201 123.177 164.334C123.187 164.467 123.25 164.589 123.351 164.676C126.122 167.031 127.674 168.473 130.722 170.717C130.829 170.799 130.926 170.892 131.013 170.994C130.487 171.064 128.353 170.994 121.743 167.447C119.485 166.269 117.808 168.944 116.035 171.091C113.485 174.181 112.82 176.357 106.668 177.618C100.127 179.004 88.7511 181.165 84.802 181.775C83.8223 176.645 83.7426 171.385 84.5664 166.228C90.3584 165.937 103.522 164.593 105.933 164.205C107.665 163.928 118.307 156.376 121.064 155.891C121.799 155.766 131.845 156.002 135.752 156.057C136.019 156.05 136.284 156.102 136.528 156.21C136.528 156.21 135.849 157.664 127.009 158.108C125.928 157.9 124.93 157.706 124.085 157.512C123.955 157.483 123.818 157.505 123.704 157.575C123.59 157.645 123.508 157.757 123.476 157.886C123.45 158.016 123.474 158.151 123.543 158.264C123.613 158.377 123.722 158.46 123.85 158.496C127.605 159.355 133.951 160.283 137.831 160.754C138.108 160.754 138.233 160.851 138.274 160.838C138.039 161.184 135.475 162.39 126.455 161.558V161.6ZM135.683 159.438C134.214 159.23 132.635 159.009 131.069 158.759C134.353 158.385 137.581 157.637 137.54 156.182C137.54 155.489 136.792 155.018 135.766 155.018C130.722 154.949 121.716 154.713 120.87 154.879C119.604 155.261 118.393 155.806 117.268 156.501C118.071 152.51 117.877 150.154 116.714 149.808C116.035 149.614 115.328 150.168 114.995 151.193C114.453 152.576 113.833 153.927 113.139 155.24C110.103 152.608 107.47 149.546 105.323 146.15C111.129 139.97 112.349 128.76 110.672 123.217C115.841 120.931 127.522 116.039 132.399 114.155C129.101 118.312 125.346 123.051 121.051 128.427C121.01 128.479 120.979 128.538 120.961 128.602C120.943 128.666 120.938 128.732 120.946 128.798C120.954 128.863 120.974 128.927 121.006 128.985C121.039 129.042 121.082 129.093 121.134 129.134C121.186 129.175 121.245 129.205 121.309 129.223C121.372 129.241 121.439 129.246 121.504 129.239C121.57 129.231 121.633 129.21 121.691 129.178C121.749 129.146 121.8 129.103 121.84 129.051C149.844 93.9106 155.193 86.2757 160.001 83.4074C164.158 80.9825 166.389 80.1927 218.892 65.5186C217.977 67.6802 217.991 72.1143 218.892 78.1696C219.432 81.5229 220.859 88.7283 223.381 91.0007C215.691 93.1347 177.461 104.733 174.287 105.675C174.218 105.696 174.154 105.732 174.099 105.78C174.044 105.828 174 105.886 173.969 105.952C166.445 122.206 153.433 157.373 135.683 159.397V159.438ZM213.972 156.667C205.756 151.554 177.641 133.249 172.015 129.577C171.933 129.522 171.836 129.493 171.738 129.493C171.639 129.493 171.543 129.522 171.461 129.577L168.398 131.614C169.784 126.515 171.475 116.372 172.306 112.215C173.207 110.192 174.066 108.28 174.856 106.575L182.989 104.192C188.989 107.753 217.381 127.873 227.164 135.466C223.769 136.547 220.111 141.702 218.268 144.736C214.804 150.404 213.654 154.464 213.972 156.695V156.667ZM226.831 159.341C223.159 156.57 222.674 154.186 216.162 150.93C217.807 147.087 219.985 143.495 222.633 140.261C234.896 147.729 251.191 145.013 262.54 149.752C253.464 153.729 235.921 158.745 226.831 159.369V159.341Z" fill="#005758"/>
<defs>
<radialGradient id="paint0_angular_7_4" cx="0" cy="0" r="1" gradientUnits="userSpaceOnUse" gradientTransform="translate(98.0001 98) rotate(90) scale(114.333)">
<stop stop-color="#005758"/>
<stop offset="1" stop-color="#005758" stop-opacity="0"/>
</radialGradient>
</defs>
</svg>
