<svg width="23" height="23" viewBox="0 0 23 23" fill="none" xmlns="http://www.w3.org/2000/svg">
<path d="M13.1121 15.561V18.2716V21.56V21.6585V21.664V21.6832C13.1094 21.7708 13.0765 21.7188 13.1176 21.6695C13.1121 21.6749 13.1012 21.727 13.0984 21.7407C13.0793 21.8502 13.145 21.6804 13.1066 21.7297C13.0902 21.7516 13.0738 21.7845 13.0628 21.8091C13.0163 21.8995 13.1395 21.7407 13.0601 21.8118C13.0437 21.8283 13.0245 21.8447 13.0081 21.8611C12.9341 21.9378 13.0765 21.8392 13.019 21.8529C13.0081 21.8557 12.9478 21.9049 12.9396 21.8967C12.9259 21.883 13.0546 21.8639 12.9697 21.883C12.9588 21.8858 12.9451 21.8885 12.9342 21.894C12.8849 21.9049 12.8849 21.9049 12.9342 21.8995C12.9451 21.8995 12.9588 21.8967 12.9697 21.8967C12.9451 21.8995 12.9205 21.8995 12.8931 21.8995H12.8903H12.8411H12.0909H8.76151H4.61621H1.70028H1.38815H1.3197H1.30875C1.28684 21.8995 1.25125 21.8912 1.23209 21.8967C1.33066 21.8803 1.31422 21.9104 1.25125 21.8912C1.23482 21.8858 1.21566 21.8803 1.19923 21.8748C1.26768 21.9049 1.2841 21.9104 1.24577 21.894C1.23756 21.8858 1.16637 21.8584 1.16911 21.8474C1.17185 21.8365 1.25399 21.9268 1.19375 21.8666C1.17459 21.8474 1.15269 21.8173 1.13078 21.8036C1.07876 21.7708 1.18828 21.9104 1.139 21.8146C1.12804 21.7927 1.11435 21.7708 1.1034 21.7516C1.04317 21.653 1.12257 21.8337 1.10888 21.7653C1.10614 21.7571 1.0815 21.6777 1.08424 21.6749C1.0815 21.6749 1.09245 21.8146 1.08971 21.6695V21.653V21.5107V19.7447V16.5111V12.4973V8.30271V4.62834V2.07653V1.43859V1.30991V1.3017V1.29896V1.26063C1.08971 1.14563 1.05412 1.36467 1.09245 1.26063C1.08971 1.2661 1.11162 1.19218 1.11435 1.19218C1.10614 1.21408 1.09519 1.23598 1.08697 1.25789C1.09793 1.23598 1.10888 1.21682 1.11983 1.19492C1.12531 1.1867 1.15542 1.13468 1.15816 1.13468C1.18554 1.14563 1.07329 1.21956 1.14173 1.1648C1.14995 1.15659 1.2403 1.0854 1.16638 1.13742C1.09245 1.19218 1.18828 1.12647 1.19923 1.12099C1.19376 1.12373 1.25947 1.0854 1.2622 1.08814C1.18554 1.11825 1.17733 1.12373 1.23209 1.10456C1.24304 1.10183 1.25673 1.09909 1.26768 1.09635C1.37994 1.05528 1.14721 1.09361 1.27042 1.09361H1.30875H1.31149H1.33065H1.41005H1.73861H2.96247H6.76006H10.7383C11.4447 1.09361 12.1511 1.09087 12.8548 1.09361H12.8931C13.0382 1.09635 12.8958 1.08814 12.8958 1.08814C12.8986 1.08266 12.9752 1.11004 12.9834 1.11004C13.0437 1.1073 12.8767 1.04707 12.9698 1.10183C12.9889 1.11278 13.0108 1.12647 13.0327 1.13742C13.1286 1.1867 12.9889 1.07445 13.0218 1.12647C13.0273 1.13468 13.0875 1.18396 13.0848 1.18944C13.0409 1.12921 13.03 1.11551 13.0546 1.14837C13.0656 1.16206 13.0738 1.17849 13.0848 1.19218C13.082 1.1867 13.1203 1.25515 13.1176 1.25515C13.1067 1.26063 13.0793 1.12921 13.1067 1.24146C13.1231 1.30991 13.093 1.31265 13.1121 1.2223C13.1094 1.24146 13.1149 1.27706 13.1149 1.29896V1.31538V1.43312V2.76927V6.65172V7.43205C13.1149 7.71954 13.3668 7.99334 13.6625 7.97967C13.9582 7.96598 14.2101 7.73873 14.2101 7.43205V4.66672V1.37569C14.2101 1.02523 14.1088 0.715826 13.8843 0.44477C13.6379 0.149071 13.2491 0.00395546 12.8713 0.00121687C12.6413 -0.00152108 12.4113 0.00121687 12.184 0.00121687H8.84642H4.66007H1.69483C1.36353 0.00121687 1.06235 -0.00973498 0.747482 0.129901C0.284764 0.335251 0.00821079 0.808893 0 1.30449V1.41401V3.12526V6.36156V10.4439V14.6795V18.4141V20.9495V21.5656V21.6669C0.0109519 22.2446 0.369626 22.7402 0.911748 22.9319C1.16091 23.0195 1.4484 22.9976 1.70849 22.9976H2.9269H6.79017H10.8068C11.4968 22.9976 12.1867 23.003 12.8767 22.9976C13.3312 22.9948 13.7364 22.773 13.9911 22.3979C14.1554 22.1542 14.2101 21.8695 14.2101 21.582V20.317V16.3662V15.5667C14.2101 15.2792 13.9582 15.0054 13.6625 15.019C13.3613 15.0272 13.1122 15.2545 13.1122 15.5611L13.1121 15.561Z" fill="black"/>
<path d="M6.00728 12.0429H7.59802H11.4175H16.0365H20.0312C20.6773 12.0429 21.3262 12.0566 21.9724 12.0429H21.9997C22.2872 12.0429 22.561 11.791 22.5474 11.4953C22.5337 11.1996 22.3064 10.9477 21.9997 10.9477H20.409H16.5895H11.9706H7.97586C7.32971 10.9477 6.68081 10.934 6.03466 10.9477H6.00728C5.71979 10.9477 5.44599 11.1996 5.45966 11.4953C5.47061 11.791 5.69786 12.0429 6.00728 12.0429H6.00728Z" fill="black"/>
<path d="M17.6901 7.93851C18.131 8.37932 18.5718 8.82012 19.0126 9.26095C19.7163 9.96462 20.4172 10.6655 21.1208 11.3692C21.2823 11.5307 21.4466 11.695 21.6082 11.8565V11.0817C21.1673 11.5225 20.7266 11.9633 20.2857 12.4041C19.582 13.1078 18.8811 13.8087 18.1775 14.5123C18.016 14.6739 17.8517 14.8381 17.6901 14.9997C17.4875 15.2023 17.4711 15.5746 17.6901 15.7745C17.9092 15.9745 18.2487 15.9908 18.465 15.7745L22.3831 11.8565C22.5911 11.6484 22.5939 11.2925 22.3831 11.0816C21.9422 10.6408 21.5014 10.2 21.0606 9.75919C20.3569 9.05552 19.656 8.3546 18.9524 7.65097C18.7909 7.48943 18.6266 7.32515 18.465 7.16361C18.2624 6.961 17.8901 6.94457 17.6902 7.16361C17.4903 7.38265 17.4739 7.72214 17.6902 7.93848L17.6901 7.93851Z" fill="black"/>
</svg>
