<svg width="27" height="24" viewBox="0 0 27 24" fill="none" xmlns="http://www.w3.org/2000/svg">
<path d="M24.3577 8.04245L21.8501 1.48216C21.6318 0.911532 21.1959 0.450961 20.6384 0.201407C20.0807 -0.048356 19.4469 -0.0664711 18.8758 0.150684L1.483 6.8014C0.911916 7.01923 0.450869 7.45488 0.201141 8.01265C-0.0486213 8.5706 -0.0665102 9.2046 0.151551 9.7757L0.405163 10.4358L2.90957 16.9845V21.6967V21.6964C2.91025 22.3071 3.15299 22.8927 3.58479 23.3246C4.01661 23.7564 4.60219 23.9994 5.21289 24H23.8323C24.443 23.9993 25.0284 23.7564 25.4602 23.3246C25.892 22.8927 26.135 22.3071 26.1357 21.6964V10.2836C26.135 9.7644 25.9588 9.2606 25.6361 8.85366C25.3135 8.44675 24.8628 8.16077 24.3572 8.04187L24.3577 8.04245ZM7.62336 7.97904L21.6679 2.52642L22.3654 4.35109L13.1722 7.9791L7.62336 7.97904ZM22.5595 4.86144L23.7514 7.98153H14.6539L22.5595 4.86144ZM1.67754 7.30881L19.0698 0.660992C19.5057 0.494785 19.9898 0.508373 20.4158 0.698581C20.8417 0.888561 21.1748 1.23999 21.3421 1.67546L21.4734 2.01965L6.12051 7.97939H5.21318C4.41745 7.97984 3.67835 8.39105 3.25855 9.06676L0.818656 9.98996L0.661962 9.58033H0.662188C0.496207 9.14444 0.510021 8.66055 0.700457 8.2346C0.890663 7.80866 1.24233 7.47579 1.67775 7.30867L1.67754 7.30881ZM2.90937 10.2856V11.9936L1.75678 12.4445L1.01316 10.4987L2.97093 9.75869C2.93017 9.93124 2.90956 10.1079 2.90956 10.2849L2.90937 10.2856ZM1.95156 12.9517L2.9096 12.5751V15.4593L1.95156 12.9517ZM25.5928 21.6951H25.5926C25.5919 22.1615 25.4062 22.6088 25.0763 22.9387C24.7464 23.2686 24.2992 23.454 23.8327 23.4545H5.21326C4.74679 23.454 4.29956 23.2684 3.96966 22.9387C3.63997 22.6087 3.45429 22.1615 3.45384 21.6951V10.2822C3.45429 9.81578 3.63974 9.36831 3.96966 9.03841C4.29958 8.70852 4.74679 8.52281 5.21326 8.52213H23.8327C24.2992 8.52259 24.7466 8.70827 25.0765 9.03819C25.4067 9.36811 25.5921 9.81554 25.5926 10.2822L25.5928 21.6951Z" fill="black"/>
<path d="M9.11779 17.5916H6.7859C6.49832 17.5921 6.22274 17.7064 6.01938 17.9098C5.81604 18.1133 5.70191 18.3889 5.70168 18.6765V20.5152C5.70191 20.8028 5.81604 21.0786 6.01938 21.282C6.22272 21.4853 6.4983 21.5999 6.7859 21.6001H9.11779C9.40559 21.5999 9.68117 21.4853 9.88454 21.282C10.0879 21.0786 10.2025 20.8028 10.2027 20.5152V18.6765C10.2025 18.3889 10.0879 18.1131 9.88454 17.9098C9.6812 17.7064 9.40562 17.5921 9.11779 17.5916ZM9.65853 20.5131L9.65875 20.5133C9.6583 20.8118 9.41646 21.0538 9.11779 21.0541H6.7859C6.48745 21.0538 6.24539 20.8118 6.24516 20.5133V18.6746C6.24539 18.376 6.48745 18.1341 6.7859 18.1337H9.11779C9.41646 18.1341 9.6583 18.376 9.65875 18.6746L9.65853 20.5131Z" fill="black"/>
<path d="M23.1688 20.701H20.0565C19.9061 20.701 19.7845 20.8226 19.7845 20.9729C19.7845 21.1231 19.9061 21.2449 20.0565 21.2449H23.1688C23.319 21.2449 23.4408 21.1231 23.4408 20.9729C23.4408 20.8226 23.319 20.701 23.1688 20.701Z" fill="black"/>
</svg>
