<svg width="31" height="31" viewBox="0 0 31 31" fill="none" xmlns="http://www.w3.org/2000/svg">
<path fill-rule="evenodd" clip-rule="evenodd" d="M10.9791 16.1458H9.68742V17.4375H10.9791V16.1458ZM9.68742 14.8541C9.34485 14.8541 9.01631 14.9902 8.77407 15.2324C8.53184 15.4747 8.39575 15.8032 8.39575 16.1458V17.4375C8.39575 17.78 8.53184 18.1086 8.77407 18.3508C9.01631 18.593 9.34485 18.7291 9.68742 18.7291H10.9791C11.3217 18.7291 11.6502 18.593 11.8924 18.3508C12.1347 18.1086 12.2708 17.78 12.2708 17.4375V16.1458C12.2708 15.8032 12.1347 15.4747 11.8924 15.2324C11.6502 14.9902 11.3217 14.8541 10.9791 14.8541H9.68742Z" fill="#8F8F8F"/>
<path fill-rule="evenodd" clip-rule="evenodd" d="M16.1458 16.1458H14.8542V17.4375H16.1458V16.1458ZM14.8542 14.8541C14.5116 14.8541 14.1831 14.9902 13.9408 15.2324C13.6986 15.4747 13.5625 15.8032 13.5625 16.1458V17.4375C13.5625 17.78 13.6986 18.1086 13.9408 18.3508C14.1831 18.593 14.5116 18.7291 14.8542 18.7291H16.1458C16.4884 18.7291 16.8169 18.593 17.0592 18.3508C17.3014 18.1086 17.4375 17.78 17.4375 17.4375V16.1458C17.4375 15.8032 17.3014 15.4747 17.0592 15.2324C16.8169 14.9902 16.4884 14.8541 16.1458 14.8541H14.8542Z" fill="#8F8F8F"/>
<path fill-rule="evenodd" clip-rule="evenodd" d="M21.3123 16.1458H20.0207V17.4375H21.3123V16.1458ZM20.0207 14.8541C19.6781 14.8541 19.3496 14.9902 19.1073 15.2324C18.8651 15.4747 18.729 15.8032 18.729 16.1458V17.4375C18.729 17.78 18.8651 18.1086 19.1073 18.3508C19.3496 18.593 19.6781 18.7291 20.0207 18.7291H21.3123C21.6549 18.7291 21.9834 18.593 22.2257 18.3508C22.4679 18.1086 22.604 17.78 22.604 17.4375V16.1458C22.604 15.8032 22.4679 15.4747 22.2257 15.2324C21.9834 14.9902 21.6549 14.8541 21.3123 14.8541H20.0207Z" fill="#8F8F8F"/>
<path fill-rule="evenodd" clip-rule="evenodd" d="M10.9791 21.3125H9.68742V22.6042H10.9791V21.3125ZM9.68742 20.0209C9.34485 20.0209 9.01631 20.157 8.77407 20.3992C8.53184 20.6414 8.39575 20.97 8.39575 21.3125V22.6042C8.39575 22.9468 8.53184 23.2753 8.77407 23.5176C9.01631 23.7598 9.34485 23.8959 9.68742 23.8959H10.9791C11.3217 23.8959 11.6502 23.7598 11.8924 23.5176C12.1347 23.2753 12.2708 22.9468 12.2708 22.6042V21.3125C12.2708 20.97 12.1347 20.6414 11.8924 20.3992C11.6502 20.157 11.3217 20.0209 10.9791 20.0209H9.68742Z" fill="#8F8F8F"/>
<path fill-rule="evenodd" clip-rule="evenodd" d="M16.1458 21.3125H14.8542V22.6042H16.1458V21.3125ZM14.8542 20.0209C14.5116 20.0209 14.1831 20.157 13.9408 20.3992C13.6986 20.6414 13.5625 20.97 13.5625 21.3125V22.6042C13.5625 22.9468 13.6986 23.2753 13.9408 23.5176C14.1831 23.7598 14.5116 23.8959 14.8542 23.8959H16.1458C16.4884 23.8959 16.8169 23.7598 17.0592 23.5176C17.3014 23.2753 17.4375 22.9468 17.4375 22.6042V21.3125C17.4375 20.97 17.3014 20.6414 17.0592 20.3992C16.8169 20.157 16.4884 20.0209 16.1458 20.0209H14.8542Z" fill="#8F8F8F"/>
<path fill-rule="evenodd" clip-rule="evenodd" d="M21.3123 21.3125H20.0207V22.6042H21.3123V21.3125ZM20.0207 20.0209C19.6781 20.0209 19.3496 20.157 19.1073 20.3992C18.8651 20.6414 18.729 20.97 18.729 21.3125V22.6042C18.729 22.9468 18.8651 23.2753 19.1073 23.5176C19.3496 23.7598 19.6781 23.8959 20.0207 23.8959H21.3123C21.6549 23.8959 21.9834 23.7598 22.2257 23.5176C22.4679 23.2753 22.604 22.9468 22.604 22.6042V21.3125C22.604 20.97 22.4679 20.6414 22.2257 20.3992C21.9834 20.157 21.6549 20.0209 21.3123 20.0209H20.0207Z" fill="#8F8F8F"/>
<path fill-rule="evenodd" clip-rule="evenodd" d="M6.45825 7.10417C6.28697 7.10417 6.1227 7.17221 6.00158 7.29333C5.88046 7.41444 5.81242 7.57871 5.81242 7.75V25.1875C5.81242 25.3588 5.88046 25.5231 6.00158 25.6442C6.1227 25.7653 6.28697 25.8333 6.45825 25.8333H24.5416C24.8968 25.8333 25.1874 25.5434 25.1874 25.1862V7.75129C25.1874 7.3935 24.8968 7.10417 24.5416 7.10417H22.6041V5.8125H24.5416C25.6124 5.8125 26.4791 6.68244 26.4791 7.75129V25.1862C26.4791 25.7002 26.275 26.1931 25.9117 26.5567C25.5484 26.9202 25.0556 27.1247 24.5416 27.125H6.45825C5.9444 27.125 5.45158 26.9209 5.08823 26.5575C4.72488 26.1942 4.52075 25.7014 4.52075 25.1875V7.75C4.52075 7.23614 4.72488 6.74333 5.08823 6.37998C5.45158 6.01663 5.9444 5.8125 6.45825 5.8125H9.68742V7.10417H6.45825ZM20.0208 7.10417H12.2708V5.8125H20.0208V7.10417Z" fill="#8F8F8F"/>
<path fill-rule="evenodd" clip-rule="evenodd" d="M25.1875 12.9167H5.8125V11.625H25.1875V12.9167Z" fill="#8F8F8F"/>
<path d="M9.6875 4.52083C9.6875 4.34955 9.75554 4.18528 9.87666 4.06416C9.99778 3.94304 10.162 3.875 10.3333 3.875C10.5046 3.875 10.6689 3.94304 10.79 4.06416C10.9111 4.18528 10.9792 4.34955 10.9792 4.52083V9.04167C10.9792 9.21295 10.9111 9.37722 10.79 9.49834C10.6689 9.61946 10.5046 9.6875 10.3333 9.6875C10.162 9.6875 9.99778 9.61946 9.87666 9.49834C9.75554 9.37722 9.6875 9.21295 9.6875 9.04167V4.52083Z" fill="#8F8F8F"/>
<path d="M20.0208 4.52083C20.0208 4.34955 20.0888 4.18528 20.2099 4.06416C20.331 3.94304 20.4953 3.875 20.6666 3.875C20.8379 3.875 21.0021 3.94304 21.1233 4.06416C21.2444 4.18528 21.3124 4.34955 21.3124 4.52083V9.04167C21.3124 9.21295 21.2444 9.37722 21.1233 9.49834C21.0021 9.61946 20.8379 9.6875 20.6666 9.6875C20.4953 9.6875 20.331 9.61946 20.2099 9.49834C20.0888 9.37722 20.0208 9.21295 20.0208 9.04167V4.52083Z" fill="#8F8F8F"/>
</svg>
