<svg width="25" height="18" viewBox="0 0 25 18" fill="none" xmlns="http://www.w3.org/2000/svg">
<path d="M16.9643 12.5C16.7275 12.5 16.5004 12.5941 16.3329 12.7615C16.1655 12.929 16.0714 13.1561 
16.0714 13.3929C16.0714 13.6297 16.1655 13.8568 16.3329 14.0242C16.5004 14.1916 16.7275 14.2857 
16.9643 14.2857H20.5357C20.7725 14.2857 20.9996 14.1916 21.1671 14.0242C21.3345 13.8568 21.4286 13.6297 
21.4286 13.3929C21.4286 13.1561 21.3345 12.929 21.1671 12.7615C20.9996 12.5941 20.7725 12.5 20.5357 
12.5H16.9643ZM0 3.57143C0 2.62423 0.376274 1.71582 1.04605 1.04605C1.71582 0.376274 
2.62423 0 3.57143 0H21.4286C22.3758 0 23.2842 0.376274 23.954 1.04605C24.6237 1.71582 25 
2.62423 25 3.57143V14.2857C25 15.2329 24.6237 16.1413 23.954 16.8111C23.2842 17.4809 22.3758
 17.8571 21.4286 17.8571H3.57143C2.62423 17.8571 1.71582 17.4809 1.04605 16.8111C0.376274 16.1413 
 0 15.2329 0 14.2857V3.57143ZM23.2143 3.57143C23.2143 3.09783 23.0261 2.64362 22.6913 2.30874C22.3564 
 1.97385 21.9022 1.78571 21.4286 1.78571H3.57143C3.09783 1.78571 2.64362 1.97385 2.30874 2.30874C1.97385 
 2.64362 1.78571 3.09783 1.78571 3.57143V5.35714H23.2143V3.57143ZM1.78571 14.2857C1.78571 14.7593 1.97385 
 15.2135 2.30874 15.5484C2.64362 15.8833 3.09783 16.0714 3.57143 16.0714H21.4286C21.9022 16.0714 22.3564 15.8833 22.6913 
 15.5484C23.0261 15.2135 23.2143 14.7593 23.2143 14.2857V7.14286H1.78571V14.2857Z" fill="#000"/>
</svg>
