<svg width="21" height="24" viewBox="0 0 21 24" fill="none" xmlns="http://www.w3.org/2000/svg">
<path d="M14.8776 10.9655C16.0013 9.85602 16.6988 8.32015 16.6988 6.62411C16.6988 3.24757 13.9337 0.5 10.535 0.5C7.13639 0.5 4.37053 3.24763 4.37053 6.62411C4.37053 8.32015 5.06787 9.85627 6.19242 10.9659C4.20456 11.9533 2.17343 13.0133 1.33357 16.3461C0.940638 17.9093 0.556724 20.3782 0.540848 20.4828C0.507473 20.6983 0.611388 20.9116 0.801697 21.0202C0.956029 21.1082 4.64835 23.1667 10.5347 23.1667C16.4222 23.1667 20.1137 21.1082 20.2676 21.0202C20.458 20.9123 20.5619 20.699 20.5285 20.4828C20.5126 20.3784 20.1287 17.9093 19.7353 16.3461C18.8966 13.0121 16.8645 11.9533 14.8767 10.9654L14.8776 10.9655ZM5.43127 6.62411C5.43127 3.82801 7.72066 1.55364 10.5351 1.55364C13.3495 1.55364 15.6385 3.82801 15.6385 6.62411C15.6385 9.42112 13.3496 11.6955 10.5351 11.6955C7.72072 11.6955 5.43127 9.42118 5.43127 6.62411ZM10.5351 22.1123C5.90259 22.1123 2.64669 20.7456 1.64867 20.2674C1.77223 19.5093 2.06976 17.7649 2.36189 16.601C3.09825 13.6787 4.80186 12.8336 6.77426 11.8547C6.8777 11.8029 6.98256 11.7503 7.08719 11.6983C8.07188 12.3616 9.25896 12.7489 10.5352 12.7489C11.8115 12.7489 12.9986 12.3611 13.9838 11.6978C14.0889 11.7505 14.1942 11.8036 14.2988 11.8558C16.2708 12.8343 17.9737 13.6798 18.7082 16.6012C19.0007 17.7655 19.2978 19.51 19.4218 20.2687C18.4274 20.7478 15.1834 22.1122 10.5348 22.1122L10.5351 22.1123Z" fill="black"/>
</svg>
