<svg width="21" height="21" viewBox="0 0 21 21" fill="none" xmlns="http://www.w3.org/2000/svg">
<path fill-rule="evenodd" clip-rule="evenodd" d="M2.2654 18.3554C2.587 18.6768 3.02294 18.8575 3.47761 18.8575H12.9803C13.435 18.8575 13.8709 18.6768 14.1925 18.3554L14.2413 18.3067C14.5627 17.9851 14.7433 17.5491 14.7433 17.0945V7.59176C14.7433 7.13709 14.5627 6.70115 14.2413 6.37955L14.1925 6.33083C13.8709 6.0094 13.435 5.82876 12.9803 5.82876H3.47761C3.02294 5.82876 2.587 6.00939 2.2654 6.33083L2.21668 6.37955C1.89525 6.70114 1.71461 7.13709 1.71461 7.59176V17.0945C1.71461 17.5491 1.89525 17.9851 2.21668 18.3067L2.2654 18.3554ZM15.453 5.16783L15.4043 5.11895C14.7614 4.47609 13.8893 4.11481 12.98 4.11481H3.47728C2.5679 4.11481 1.69588 4.47608 1.05303 5.11895L1.00414 5.16783C0.361286 5.81069 0 6.68292 0 7.59209V17.0948C0 18.004 0.361273 18.8762 1.00414 19.5192L1.05303 19.5678C1.69588 20.2108 2.56794 20.5721 3.47728 20.5721H12.98C13.8894 20.5721 14.7614 20.2108 15.4043 19.5678L15.453 19.5192C16.096 18.8762 16.4573 18.004 16.4573 17.0948V7.59209C16.4573 6.68288 16.096 5.81069 15.453 5.16783V5.16783Z" fill="black"/>
<path fill-rule="evenodd" clip-rule="evenodd" d="M16.4575 14.743H17.0945C17.5492 14.743 17.9851 14.5624 18.3067 14.2409L18.3555 14.1922C18.6769 13.8706 18.8575 13.4347 18.8575 12.98V3.47729C18.8575 3.02261 18.6769 2.58667 18.3555 2.26507L18.3067 2.21635C17.9851 1.89493 17.5492 1.71428 17.0945 1.71428H7.59181C7.13714 1.71428 6.7012 1.89492 6.3796 2.21635L6.33088 2.26507C6.00945 2.58667 5.82881 3.02261 5.82881 3.47729V4.11427H4.11452V3.47729C4.11452 2.5679 4.4758 1.69588 5.11867 1.05303L5.16755 1.00414C5.81041 0.361286 6.68246 0 7.59181 0H17.0945C18.0037 0 18.8759 0.361273 19.519 1.00414L19.5675 1.05303C20.2105 1.69588 20.5718 2.56794 20.5718 3.47729V12.98C20.5718 13.8894 20.2105 14.7614 19.5675 15.4043L19.519 15.453C18.8759 16.096 18.0037 16.4573 17.0945 16.4573H16.4575L16.4575 14.743Z" fill="black"/>
</svg>
