<svg width="7" height="6" viewBox="0 0 7 6" fill="none" xmlns="http://www.w3.org/2000/svg">
<path d="M0.000134468 0.723735C0.000134468 0.63062 0.0548325 0.547701 0.136267 0.517464C0.217813 0.487105 0.308013 0.516025 0.361046 0.58934L3.4978 4.92684L6.6354 0.589033C6.66768 0.541394 6.7165 0.510076 6.77053 0.502037C6.82456 0.493997 6.87937 0.509957 6.92242 0.546316C6.96535 0.582674 6.99298 0.636193 6.99886 0.694869C7.00463 0.753548 6.98832 0.812343 6.95348 0.857823L3.65683 5.41588C3.61855 5.46892 3.55986 5.5 3.49773 5.5C3.4356 5.5 3.37691 5.46892 3.33863 5.41588L0.0428262 0.85813C0.0150895 0.819851 -0.000110149 0.772452 9.53674e-07 0.723735H0.000134468Z" fill="#005758"/>
</svg>
