<svg width="26" height="26" viewBox="0 0 26 26" fill="none" xmlns="http://www.w3.org/2000/svg">
<path d="M9.89002 0H1.71617C0.785232 0 0 0.756247 0 1.71617V9.9191C0 10.85 0.756248 11.6353 1.71617 11.6353H9.91911C10.85 11.6353 11.6353 10.879 11.6353 9.9191L11.6351 1.71617C11.6061 0.785439 10.8498 0 9.88987 0H9.89002ZM10.9372 9.91915C10.9372 10.4719 10.4717 10.9374 9.919 10.9374L1.71606 10.9372C1.16333 10.9372 0.697863 10.4717 0.697863 9.91895V1.71601C0.697863 1.16328 1.16332 0.697816 1.71606 0.697816H9.919C10.4717 0.697816 10.9372 1.16328 10.9372 1.71601V9.91915Z" fill="black"/>
<path d="M23.5907 0H15.4168C14.4859 0 13.7007 0.756247 13.7007 1.71617V9.9191C13.7007 10.85 14.4569 11.6353 15.4168 11.6353H23.6198C24.5507 11.6353 25.3359 10.879 25.3359 9.9191V1.71617C25.3069 0.785439 24.5505 0 23.5905 0H23.5907ZM24.6379 9.91915C24.6379 10.4719 24.1724 10.9374 23.6197 10.9374L15.4167 10.9372C14.864 10.9372 14.3985 10.4717 14.3985 9.91895L14.3987 1.71601C14.3987 1.16328 14.8642 0.697816 15.4169 0.697816H23.6199C24.1726 0.697816 24.6381 1.16328 24.6381 1.71601L24.6379 9.91915Z" fill="black"/>
<path d="M9.89002 13.5552H1.71617C0.785232 13.5552 0 14.3114 0 15.2713V23.4743C0 24.4052 0.756248 25.1904 1.71617 25.1904H9.91911C10.85 25.1904 11.6353 24.4342 11.6353 23.4743L11.6351 15.2713C11.6061 14.3406 10.8498 13.5552 9.88987 13.5552H9.89002ZM10.9372 23.4743C10.9372 24.0271 10.4717 24.4925 9.919 24.4925L1.71606 24.4923C1.16333 24.4923 0.697863 24.0269 0.697863 23.4741V15.2712C0.697863 14.7185 1.16332 14.253 1.71606 14.253H9.919C10.4717 14.253 10.9372 14.7185 10.9372 15.2712V23.4743Z" fill="black"/>
<path d="M23.5907 13.5552H15.4168C14.4859 13.5552 13.7007 14.3114 13.7007 15.2713V23.4743C13.7007 24.4052 14.4569 25.1904 15.4168 25.1904H23.6198C24.5507 25.1904 25.3359 24.4342 25.3359 23.4743V15.2713C25.3069 14.3406 24.5505 13.5552 23.5905 13.5552H23.5907ZM24.6379 23.4743C24.6379 24.0271 24.1724 24.4925 23.6197 24.4925L15.4167 24.4923C14.864 24.4923 14.3985 24.0269 14.3985 23.4741L14.3987 15.2712C14.3987 14.7185 14.8642 14.253 15.4169 14.253H23.6199C24.1726 14.253 24.6381 14.7185 24.6381 15.2712L24.6379 23.4743Z" fill="black"/>
</svg>
