<svg width="22" height="22" viewBox="0 0 22 22" fill="none" xmlns="http://www.w3.org/2000/svg">
<path d="M9.275 15.225C9.37492 15.325 9.49996 15.375 9.62499 15.375C9.75002 15.375 9.87506 15.325 9.97498 15.225L16.6 8.60003C16.8 8.4 16.8 8.10007 16.6 7.90003C16.4 7.69998 16.1 7.7 15.9 7.90003L9.62498 14.175L6.60007 11.1499C6.40005 10.9499 6.10012 10.9499 5.90007 11.1499C5.70003 11.35 5.70005 11.6499 5.90007 11.8499L9.275 15.225Z" fill="black"/>
<path d="M11 22C17.075 22 22 17.075 22 11C22 4.925 17.075 0 11 0C4.925 0 0 4.925 0 11C0 17.075 4.925 22 11 22ZM11 1C16.525 1 21 5.475 21 11C21 16.525 16.525 21 11 21C5.475 21 1 16.525 1 11C1 5.475 5.475 1 11 1Z" fill="black"/>
</svg>
