<svg width="20" height="24" viewBox="0 0 20 24" fill="none" xmlns="http://www.w3.org/2000/svg">
<path d="M2.71003 10.1628C2.71003 12.141 2.49321 16.7752 0.406425 17.2901L0 17.3984V20.8402H6.93763C7.26278 22.2495 8.53649 23.2791 10 23.2791C11.4633 23.2791 12.7371 22.2493 13.0624 20.8402H20L19.9998 17.4256L19.5934 17.3171C17.5066 16.8022 17.2898 12.141 17.2898 10.1898C17.2898 5.52857 14.4172 3.68576 12.3304 2.95406C12.3847 2.76427 12.4117 2.57467 12.4117 2.38486C12.4117 1.05691 11.3278 0 10.0269 0C8.72612 0 7.64202 1.08391 7.64202 2.38486C7.64202 2.57465 7.66905 2.76425 7.7233 2.95406C5.60969 3.65876 2.71026 5.50152 2.71026 10.1627L2.71003 10.1628ZM9.99997 22.1952C9.21416 22.1952 8.50941 21.7346 8.15726 21.057H11.8159C11.4905 21.7345 10.786 22.1952 10 22.1952H9.99997ZM8.53666 3.79426L9.21416 3.60446L8.8618 3.00826C8.75348 2.81847 8.69923 2.57461 8.69923 2.35781C8.69923 1.62606 9.29543 1.05705 9.99999 1.05705C10.7045 1.05705 11.3007 1.65325 11.3007 2.35781C11.3007 2.57463 11.2465 2.81849 11.1382 3.00826L10.7858 3.60446L11.4633 3.79426C13.6314 4.39046 16.1788 5.98932 16.1788 10.1628C16.1788 15.7183 17.5608 17.6424 18.8888 18.2115V19.7561H1.08402V18.2113C2.41197 17.6421 3.79403 15.7181 3.79403 10.1626C3.79403 6.01627 6.36849 4.41736 8.53655 3.79406L8.53666 3.79426Z" fill="black"/>
</svg>
