<svg width="18" height="24" viewBox="0 0 18 24" fill="none" xmlns="http://www.w3.org/2000/svg">
<path d="M16.6202 3.44948H11.3937V2.61324C11.3937 1.92024 11.1184 1.25555 10.6284 0.765276C10.1382 0.275295 9.47348 0 8.78048 0H8.36236C7.66936 0 7.00468 0.275325 6.5144 0.765276C6.02442 1.25549 5.74913 1.92024 5.74913 2.61324V3.44948H0.522648C0.234027 3.44948 0 3.6835 0 3.97213V7.4216C0 7.5602 0.055065 7.69319 0.153061 7.79119C0.251057 7.88918 0.384054 7.94425 0.522648 7.94425H1.14983V20.8641C1.14983 21.6957 1.48021 22.4934 2.06819 23.0814C2.65641 23.6696 3.4539 24 4.28571 24H12.7735C13.6051 24 14.4028 23.6696 14.9908 23.0814C15.579 22.4934 15.9094 21.6957 15.9094 20.8641V7.94425H16.5366C16.6752 7.94425 16.8079 7.88919 16.9062 7.79119C17.0042 7.69319 17.0592 7.5602 17.0592 7.4216V3.97213C17.0625 3.71314 16.8756 3.49078 16.6201 3.44948H16.6202ZM6.79442 2.61324C6.79442 2.19746 6.95961 1.79845 7.2536 1.50451C7.5476 1.21057 7.94661 1.04533 8.36234 1.04533H8.78045C9.19624 1.04533 9.59525 1.21052 9.88918 1.50451C10.1831 1.7985 10.3484 2.19751 10.3484 2.61324V3.44948H6.79436L6.79442 2.61324ZM14.9477 20.8641C14.9477 21.4185 14.7275 21.9503 14.3355 22.3422C13.9433 22.7344 13.4115 22.9547 12.8571 22.9547H4.32752C3.77315 22.9547 3.24137 22.7344 2.84942 22.3422C2.4572 21.9502 2.23693 21.4185 2.23693 20.8641V7.94425H14.9477V20.8641ZM16.0976 6.89895H1.0453V4.49477H16.0976V6.89895Z" fill="black"/>
<path d="M8.57142 19.4425C8.71002 19.4425 8.84301 19.3875 8.94101 19.2895C9.03901 19.1915 9.09407 19.0585 9.09407 18.9199V12.0209C9.09407 11.7323 8.86004 11.4983 8.57142 11.4983C8.2828 11.4983 8.04877 11.7323 8.04877 12.0209V18.9199C8.04877 19.0585 8.10384 19.1915 8.20184 19.2895C8.29983 19.3875 8.43283 19.4425 8.57142 19.4425Z" fill="black"/>
<path d="M12.0209 20.5923C12.1595 20.5923 12.2925 20.5373 12.3905 20.4393C12.4885 20.3413 12.5435 20.2083 12.5435 20.0697V10.8711C12.5435 10.5825 12.3095 10.3484 12.0209 10.3484C11.7323 10.3484 11.4983 10.5825 11.4983 10.8711V20.0697C11.4983 20.3583 11.7323 20.5923 12.0209 20.5923Z" fill="black"/>
<path d="M5.12194 20.5923C5.26054 20.5923 5.39354 20.5373 5.49153 20.4393C5.58953 20.3413 5.64459 20.2083 5.64459 20.0697V10.8711C5.64459 10.5825 5.41057 10.3484 5.12194 10.3484C4.83332 10.3484 4.5993 10.5825 4.5993 10.8711V20.0697C4.5993 20.3583 4.83332 20.5923 5.12194 20.5923Z" fill="black"/>
</svg>
