<svg width="25" height="18" viewBox="0 0 25 18" fill="none" xmlns="http://www.w3.org/2000/svg">
<path d="M24.3851 7.58354C22.2013 5.12882 17.7555 1 12.5 1C7.24448 1 2.7986 5.12891 0.614949 7.58354C0.218959 8.02631 0 8.59933 0 9.19335C0 9.78736 0.218954 10.3603 0.614949 10.8032C2.7987 13.2579 7.24448 17.3867 12.5 17.3867C17.7555 17.3867 22.2014 13.2578 24.3851 10.8032C24.781 10.3604 25 9.78736 25 9.19335C25 8.59933 24.781 8.02635 24.3851 7.58354V7.58354ZM23.5801 10.0785C21.9195 11.9564 17.5169 16.308 12.4999 16.308C7.48349 16.3082 3.08073 11.9592 1.41976 10.0842C1.20099 9.83853 1.08029 9.52094 1.08029 9.19215C1.08029 8.86315 1.20099 8.54577 1.41976 8.30005C3.08045 6.4221 7.48588 2.07056 12.4999 2.07056C17.514 2.07056 21.9196 6.42756 23.5801 8.30292C23.7982 8.54845 23.9185 8.86546 23.9185 9.19373C23.9185 9.522 23.7982 9.839 23.5801 10.0845V10.0785Z" fill="black"/>
<path d="M12.5 4.29175C11.1999 4.29175 9.9532 4.80825 9.03414 5.72751C8.11488 6.64658 7.59838 7.89329 7.59838 9.19337C7.59838 10.4935 8.11488 11.7402 9.03414 12.6592C9.9532 13.5785 11.1999 14.095 12.5 14.095C13.8001 14.095 15.0468 13.5785 15.9659 12.6592C16.8851 11.7402 17.4016 10.4935 17.4016 9.19337C17.4001 7.89386 16.8833 6.64787 15.9644 5.72904C15.0455 4.81021 13.7995 4.29328 12.5 4.2918L12.5 4.29175ZM12.5 13.0244C11.4848 13.0244 10.511 12.6212 9.79319 11.9035C9.07534 11.1856 8.67185 10.2121 8.67166 9.19687C8.67129 8.18165 9.07439 7.20792 9.7919 6.48987C10.5096 5.77182 11.4831 5.36796 12.4981 5.36757C13.5134 5.36701 14.4873 5.76992 15.2055 6.48723C15.9238 7.20475 16.3278 8.17806 16.3284 9.19328C16.3271 10.2082 15.9232 11.1811 15.2055 11.8988C14.4879 12.6165 13.5149 13.0203 12.5 13.0217V13.0244Z" fill="black"/>
<path d="M2.71212 1.24L22.2879 17.08" stroke="black" stroke-linecap="round"/>
</svg>
