<svg width="19" height="25" viewBox="0 0 19 25" fill="none" xmlns="http://www.w3.org/2000/svg">
<path fill-rule="evenodd" clip-rule="evenodd" d="M3.33333 10H2.5C1.83667 10 1.2009 10.2634 0.732524 10.7325C0.2634 11.2009 0 11.8367 0 12.5V22.5C0 23.1633 0.26339 23.7991 0.732524 24.2675C1.2009 24.7366 1.83671 25 2.5 25H15.8333C16.4967 25 17.1324 24.7366 17.6008 24.2675C18.0699 23.7991 18.3333 23.1633 18.3333 22.5V12.5C18.3333 11.8367 18.0699 11.2009 17.6008 10.7325C17.1324 10.2634 16.4966 10 15.8333 10H15V5.83333C15 2.61162 12.3884 0 9.16667 0C5.94495 0 3.33333 2.61162 3.33333 5.83333V10ZM2.5 11.6667H15.8333C16.0541 11.6667 16.2667 11.7541 16.4224 11.9109C16.5792 12.0666 16.6667 12.2792 16.6667 12.5V22.5C16.6667 22.7208 16.5792 22.9334 16.4224 23.0891C16.2667 23.2459 16.0541 23.3333 15.8333 23.3333H2.5C2.2792 23.3333 2.06659 23.2459 1.9109 23.0891C1.7541 22.9334 1.66667 22.7208 1.66667 22.5V12.5C1.66667 12.2792 1.7541 12.0666 1.9109 11.9109C2.0666 11.7541 2.27921 11.6667 2.5 11.6667ZM9.16667 1.66667C6.8659 1.66667 5 3.53257 5 5.83333V10H13.3333V5.83333C13.3333 3.53257 11.4674 1.66667 9.16667 1.66667Z" fill="#FF4F4F"/>
<path fill-rule="evenodd" clip-rule="evenodd" d="M8.33338 15.8333V19.1667C8.33338 19.6267 8.70671 20 9.16672 20C9.62674 20 10.0001 19.6267 10.0001 19.1667V15.8333C10.0001 15.3733 9.62674 15 9.16672 15C8.70671 15 8.33338 15.3733 8.33338 15.8333Z" fill="#FF4F4F"/>
</svg>
