<svg width="25" height="17" viewBox="0 0 25 17" fill="none" xmlns="http://www.w3.org/2000/svg">
<path d="M24.3851 6.97025C22.2013 4.51554 17.7555 0.386719 12.5 0.386719C7.24448 0.386719 2.7986 4.51563 0.614949 6.97025C0.218959 7.41303 0 7.98605 0 8.58006C0 9.17408 0.218954 9.74706 0.614949 10.1899C2.7987 12.6446 7.24448 16.7734 12.5 16.7734C17.7555 16.7734 22.2014 12.6445 24.3851 10.1899C24.781 9.7471 25 9.17408 25 8.58006C25 7.98605 24.781 7.41307 24.3851 6.97025V6.97025ZM23.5801 9.46521C21.9195 11.3432 17.5169 15.6947 12.4999 15.6947C7.48349 15.6949 3.08073 11.3459 1.41976 9.47096C1.20099 9.22525 1.08029 8.90766 1.08029 8.57887C1.08029 8.24987 1.20099 7.93249 1.41976 7.68677C3.08045 5.80882 7.48588 1.45727 12.4999 1.45727C17.514 1.45727 21.9196 5.81428 23.5801 7.68964C23.7982 7.93517 23.9185 8.25218 23.9185 8.58045C23.9185 8.90871 23.7982 9.22572 23.5801 9.47125V9.46521Z" fill="black"/>
<path d="M12.5 3.67847C11.1999 3.67847 9.9532 4.19496 9.03414 5.11423C8.11488 6.0333 7.59838 7.28001 7.59838 8.58009C7.59838 9.88018 8.11488 11.1269 9.03414 12.046C9.9532 12.9652 11.1999 13.4817 12.5 13.4817C13.8001 13.4817 15.0468 12.9652 15.9659 12.046C16.8851 11.1269 17.4016 9.88018 17.4016 8.58009C17.4001 7.28058 16.8833 6.03459 15.9644 5.11576C15.0455 4.19693 13.7995 3.68 12.5 3.67851L12.5 3.67847ZM12.5 12.4112C11.4848 12.4112 10.511 12.0079 9.79319 11.2902C9.07534 10.5724 8.67185 9.59881 8.67166 8.58359C8.67129 7.56837 9.07439 6.59464 9.7919 5.87659C10.5096 5.15854 11.4831 4.75467 12.4981 4.75429C13.5134 4.75373 14.4873 5.15664 15.2055 5.87395C15.9238 6.59147 16.3278 7.56478 16.3284 8.58C16.3271 9.59488 15.9232 10.5678 15.2055 11.2855C14.4879 12.0032 13.5149 12.407 12.5 12.4084V12.4112Z" fill="black"/>
</svg>
