<svg width="25" height="25" viewBox="0 0 25 25" fill="none" xmlns="http://www.w3.org/2000/svg">
<path d="M11.1328 5.63965C11.1328 6.00225 11.2769 6.35 11.5333 6.6064C11.7896 6.86279 12.1374 7.00684 12.5 7.00684C12.8626 7.00684 13.2103 6.86279 13.4667 6.6064C13.7231 6.35 13.8672 6.00225 13.8672 5.63965C13.8672 5.27705 13.7231 4.9293 13.4667 4.6729C13.2103 4.4165 12.8626 4.27246 12.5 4.27246C12.1374 4.27246 11.7896 4.4165 11.5333 4.6729C11.2769 4.9293 11.1328 5.27705 11.1328 5.63965ZM11.1328 12.4756C11.1328 12.8382 11.2769 13.1859 11.5333 13.4423C11.7896 13.6987 12.1374 13.8428 12.5 13.8428C12.8626 13.8428 13.2103 13.6987 13.4667 13.4423C13.7231 13.1859 13.8672 12.8382 13.8672 12.4756C13.8672 12.113 13.7231 11.7652 13.4667 11.5088C13.2103 11.2524 12.8626 11.1084 12.5 11.1084C12.1374 11.1084 11.7896 11.2524 11.5333 11.5088C11.2769 11.7652 11.1328 12.113 11.1328 12.4756V12.4756ZM11.1328 19.3115C11.1328 19.6741 11.2769 20.0219 11.5333 20.2783C11.7896 20.5347 12.1374 20.6787 12.5 20.6787C12.8626 20.6787 13.2103 20.5347 13.4667 20.2783C13.7231 20.0219 13.8672 19.6741 13.8672 19.3115C13.8672 18.9489 13.7231 18.6012 13.4667 18.3448C13.2103 18.0884 12.8626 17.9443 12.5 17.9443C12.1374 17.9443 11.7896 18.0884 11.5333 18.3448C11.2769 18.6012 11.1328 18.9489 11.1328 19.3115V19.3115Z" fill="black"/>
</svg>
