<svg width="20" height="20" viewBox="0 0 20 20" fill="none" xmlns="http://www.w3.org/2000/svg">
<path d="M6.07999 16.24C5.99999 16.24 5.91999 16.2 5.83999 16.16C5.67999 16.04 5.63999 15.88 5.67999 15.72L7.23999 10.92L3.15999 7.92002C2.99999 7.80002 2.95999 7.64002 2.99999 7.48002C3.03999 7.32002 3.19999 7.20002 3.39999 7.20002H8.47999L9.99999 2.36002C10.04 2.20002 10.2 2.08002 10.4 2.08002C10.6 2.08002 10.72 2.20002 10.8 2.36002L12.36 7.20002H17.44C17.6 7.20002 17.76 7.28002 17.84 7.44002C17.92 7.60002 17.84 7.80002 17.68 7.88002L13.6 10.84L15.16 15.64C15.2 15.8 15.16 16 15 16.08C14.84 16.16 14.68 16.2 14.52 16.08L10.4 13.2L6.31999 16.16C6.23999 16.2 6.15999 16.24 6.07999 16.24V16.24ZM10.4 12.28C10.48 12.28 10.56 12.32 10.64 12.36L13.96 14.8L12.68 10.88C12.64 10.72 12.68 10.52 12.84 10.44L16.16 8.00002H12.04C11.88 8.00002 11.72 7.88002 11.64 7.72002L10.4 3.80002L9.11999 7.72002C9.07999 7.88002 8.91999 8.00002 8.71999 8.00002H4.59999L7.91999 10.44C8.07999 10.56 8.11999 10.72 8.07999 10.88L6.83999 14.8L10.16 12.36C10.24 12.32 10.32 12.28 10.4 12.28V12.28Z" fill="#005758"/>
</svg>
