<svg width="22" height="16" viewBox="0 0 22 16" fill="none" xmlns="http://www.w3.org/2000/svg">
<path d="M21.9999 7.50979C21.9999 7.25222 21.8934 7.00643 21.706 6.83027L14.6804 0.252187V0.251675C14.3045 -0.100117 13.7146 -0.0806629 13.3623 0.294689C13.0105 0.67055 13.0299 1.26045 13.4053 1.6128L18.7104 6.57782H0.93197C0.417338 6.57782 0 6.99516 0 7.50979C0 8.02442 0.417338 8.44176 0.93197 8.44176H18.7104L13.4125 13.4068C13.0371 13.7591 13.0177 14.349 13.3695 14.7249C13.7218 15.1002 14.3117 15.1197 14.6876 14.7679L21.7132 8.18982V8.18931C21.8981 8.01213 22.002 7.76634 22 7.50979L21.9999 7.50979Z" fill="black"/>
</svg>
