<svg width="20" height="20" viewBox="0 0 20 20" fill="none" xmlns="http://www.w3.org/2000/svg">
<path d="M19.6625 17.4014L14.7742 12.5146C14.3404 12.0797 13.5772 12.0797 13.1424 12.5146L12.9911 12.6648L12.3185 11.9923C13.5144 10.7175 14.2478 9.00472 14.2478 7.12327C14.2478 3.19556 11.0523 0 7.12434 0C3.19641 0 0 3.19542 0 7.12327C0 11.051 3.19549 14.2465 7.12434 14.2465C9.00565 14.2465 10.7185 13.5132 11.9934 12.3184L12.666 12.9909L12.5147 13.1422C12.0648 13.5921 12.0648 14.3242 12.5147 14.774L17.403 19.6631C17.6278 19.8879 17.9231 20 18.2184 20C18.5138 20 18.8089 19.8881 19.0339 19.6631L19.6628 19.0332C20.1124 18.5834 20.1124 17.8513 19.6626 17.4014L19.6625 17.4014ZM7.12455 13.7859C3.45046 13.7859 0.46158 10.7973 0.46158 7.12445C0.46158 3.45163 3.45028 0.463003 7.12455 0.463003C10.7975 0.463003 13.7861 3.45163 13.7861 7.12445C13.7861 10.7973 10.7974 13.7859 7.12455 13.7859ZM19.3373 18.707L18.7074 19.3368C18.4377 19.6065 17.9986 19.6065 17.7279 19.3368L12.8396 14.4487C12.57 14.178 12.569 13.7389 12.8396 13.4682L13.1541 13.1538C13.1551 13.1516 13.1573 13.1505 13.1594 13.1484L13.4674 12.8404C13.7285 12.5794 14.1869 12.5794 14.4479 12.8404L18.0026 16.395L19.3361 17.7274C19.6069 17.997 19.6069 18.4372 19.3371 18.7068L19.3373 18.707Z" fill="black"/>
</svg>
